<?xml version="1.0" encoding="utf-8"?>
<!-- Generator: Adobe Illustrator 24.0.2, SVG Export Plug-In . SVG Version: 6.00 Build 0)  -->
<svg version="1.1" id="Слой_1" xmlns="http://www.w3.org/2000/svg" xmlns:xlink="http://www.w3.org/1999/xlink" x="0px" y="0px"
	 viewBox="0 0 2000 2000" style="enable-background:new 0 0 2000 2000;" xml:space="preserve">
<style type="text/css">
	.st0{fill:#E1C8FF;}
	.st1{fill:#CEACFF;}
	.st2{fill:#FFFFFF;}
	.st3{fill:#C99BFF;}
	.st4{fill:#C9C3FF;}
	.st5{fill:#DFC6FF;}
	.st6{fill:#2A2370;}
	.st7{fill:#E847FF;}
	.st8{fill:#3FA9F5;}
	.st9{fill:#F2A374;}
	.st10{fill:#F2BC9C;}
	.st11{fill:#1B1464;}
	.st12{fill:#171157;}
	.st13{fill:#130E47;}
	.st14{fill:#FF5862;}
	.st15{fill:#FF2E57;}
	.st16{fill:#F2F2F2;}
	.st17{fill:#D8C9FF;}
	.st18{fill:#A040F5;}
	.st19{fill:#F29B22;}
	.st20{fill:#FFC371;}
	.st21{fill:#298BF5;}
	.st22{fill:#2071F5;}
	.st23{fill:#FFA658;}
	.st24{fill:#35105F;}
	.st25{fill:#FFBF53;}
</style>
<path class="st0" d="M974.82,1586.76c128.35-1.2,792.27,133.05,846.31-503.42s-506.63-640.07-688.05-588.53
	c-181.42,51.54-256.69-243.32-428.46-264.9c-171.77-21.58-400.48,124.66-484.43,499.83c-83.96,375.17,124.49,737.16,241.25,804.28
	C578.2,1601.14,974.82,1586.76,974.82,1586.76z"/>
<g>
	<path class="st1" d="M1696.02,1277.05c0,0,320.14-94.01,276.37-265.41c-43.77-171.4-229.61,114.56-229.61,114.56
		s199.22-267.02,71.95-326.25c-127.28-59.23-130.7,313.14-130.7,313.14s20.64-313.94-80.14-284.32
		c-100.78,29.63,59.17,454.4,59.17,454.4L1696.02,1277.05z"/>
	<path class="st2" d="M1611.01,838.16l3.47,12.98c1.13,4.33,2.38,8.63,3.35,13l3.14,13.05c0.51,2.18,1.07,4.34,1.55,6.53l1.41,6.56
		l2.82,13.12l0.7,3.28l0.63,3.3l1.26,6.59l2.52,13.18l2.28,13.23c6.12,35.26,10.91,70.73,15.08,106.27
		c4.09,35.55,7.61,71.17,10.65,106.84c3.09,35.66,5.88,71.36,8.47,107.08l0.88,12.12l4.33-11.36
		c12.96-33.95,25.63-68.02,37.83-102.25c3.08-8.55,6.02-17.15,9.01-25.73c3.01-8.57,5.91-17.19,8.82-25.8
		c1.45-4.31,2.93-8.6,4.35-12.92l4.25-12.95l4.21-12.97l4.09-13.01l4.08-13.01l3.94-13.05l3.93-13.05l3.77-13.1l3.74-13.11
		l3.58-13.16c1.18-4.39,2.41-8.76,3.55-13.16l3.38-13.21l1.67-6.61l0.83-3.3l0.78-3.32l3.13-13.27c2.16-8.83,3.98-17.74,5.93-26.61
		l1.43-6.66l1.32-6.69l2.63-13.37l0.64-3.35l0.58-3.36l1.15-6.72l2.3-13.43l-2.7,13.35l-1.35,6.67l-0.67,3.34l-0.75,3.32l-2.93,13.3
		l-1.47,6.65l-1.58,6.62c-2.15,8.82-4.17,17.67-6.52,26.44l-3.42,13.18l-0.86,3.29l-0.91,3.28l-1.82,6.56l-3.6,13.13
		c-1.2,4.37-2.51,8.72-3.76,13.08l-3.78,13.07l-3.94,13.03l-3.95,13.03l-4.08,12.98l-4.09,12.98l-4.23,12.94l-4.24,12.94l-4.35,12.9
		l-4.34,12.9c-1.45,4.3-2.96,8.58-4.44,12.87c-2.97,8.58-5.92,17.16-8.99,25.7c-3.05,8.55-6.05,17.11-9.18,25.63
		c-12.31,34.15-25.04,68.15-38.04,102.06l5.21,0.77c-2.7-35.72-5.49-71.44-8.78-107.13c-3.33-35.68-6.98-71.34-11.57-106.9
		c-4.53-35.56-9.91-71.02-16.66-106.24l-2.58-13.19l-2.82-13.14l-1.41-6.57l-0.71-3.29l-0.77-3.27l-3.12-13.08l-1.56-6.54
		c-0.53-2.18-1.13-4.33-1.7-6.5l-3.45-12.99c-1.11-4.34-2.48-8.61-3.74-12.9L1611.01,838.16z"/>
	<path class="st2" d="M1939.64,1013.32c-16.95,24.82-35.4,48.5-55.18,70.98l-7.52,8.34c-2.51,2.77-4.94,5.62-7.56,8.3l-7.72,8.15
		c-2.58,2.71-5.12,5.46-7.81,8.06l-7.93,7.95l-3.96,3.98c-1.31,1.34-2.7,2.59-4.04,3.9l-8.13,7.75l-4.06,3.87
		c-1.35,1.29-2.77,2.52-4.15,3.79l-8.29,7.58l-4.14,3.79c-1.38,1.27-2.81,2.47-4.22,3.71l-8.47,7.38l-4.23,3.69
		c-1.41,1.24-2.86,2.41-4.29,3.63l-8.59,7.24c-2.87,2.41-5.71,4.85-8.65,7.17l-8.74,7.06c-2.91,2.36-5.78,4.77-8.75,7.06
		c-23.49,18.65-47.56,36.58-71.81,54.33c25.51-15.89,50.34-32.91,74.39-50.99c6.05-4.47,11.94-9.15,17.89-13.77
		c2.99-2.29,5.89-4.68,8.81-7.06l8.76-7.13c2.95-2.34,5.78-4.82,8.63-7.28l8.55-7.37c1.42-1.24,2.87-2.44,4.26-3.71l4.19-3.79
		l8.38-7.58c1.38-1.28,2.8-2.52,4.15-3.83l4.07-3.92l8.14-7.84c1.35-1.32,2.73-2.59,4.05-3.94l3.96-4.03l7.9-8.08
		c2.66-2.67,5.18-5.47,7.72-8.25l7.63-8.33c2.58-2.74,5-5.64,7.45-8.49l7.33-8.6C1906.95,1063.9,1924.58,1039.35,1939.64,1013.32z"
		/>
	<path class="st2" d="M1730.96,928.58c1.1,8.2,2.58,16.3,4.19,24.38c1.58,8.08,3.36,16.12,5.23,24.14c1.88,8.01,3.88,16,6.06,23.94
		c2.16,7.95,4.45,15.87,7.12,23.69c-1.1-8.2-2.57-16.31-4.18-24.38c-1.58-8.08-3.36-16.12-5.24-24.14c-1.89-8.01-3.89-16-6.07-23.94
		C1735.91,944.32,1733.62,936.41,1730.96,928.58z"/>
	<path class="st2" d="M1755.01,847.22c1.11,8.2,2.58,16.3,4.19,24.38c1.58,8.08,3.36,16.12,5.23,24.14c1.88,8.01,3.88,16,6.06,23.94
		c2.16,7.95,4.45,15.86,7.12,23.69c-1.1-8.2-2.58-16.31-4.18-24.38c-1.58-8.08-3.36-16.12-5.24-24.14c-1.89-8.01-3.89-16-6.07-23.94
		C1759.96,862.96,1757.67,855.05,1755.01,847.22z"/>
	<path class="st2" d="M1710.72,987.78c0.88,8.32,2.13,16.56,3.51,24.78c1.36,8.22,2.91,16.4,4.56,24.56
		c1.66,8.16,3.44,16.29,5.4,24.39c1.94,8.1,4.01,16.18,6.46,24.18c-0.87-8.32-2.12-16.56-3.5-24.78c-1.36-8.22-2.91-16.4-4.56-24.56
		c-1.67-8.16-3.44-16.29-5.4-24.39C1715.23,1003.86,1713.16,995.78,1710.72,987.78z"/>
	<path class="st2" d="M1909.9,989.14c-0.8,5.56-1.2,11.12-1.51,16.68c-0.28,5.56-0.41,11.12-0.41,16.68
		c0,5.56,0.13,11.12,0.42,16.68c0.31,5.56,0.71,11.12,1.52,16.68c0.81-5.56,1.21-11.12,1.51-16.68c0.28-5.56,0.41-11.12,0.41-16.68
		c0-5.56-0.14-11.12-0.42-16.68C1911.11,1000.26,1910.7,994.7,1909.9,989.14z"/>
	<path class="st2" d="M1875.34,1018.68c0.02,5.65,0.44,11.24,0.96,16.81c0.54,5.57,1.23,11.12,2.04,16.65
		c0.82,5.53,1.77,11.04,2.86,16.53c1.12,5.48,2.34,10.96,3.96,16.37c-0.02-5.65-0.44-11.24-0.95-16.81
		c-0.54-5.57-1.23-11.12-2.05-16.65s-1.77-11.04-2.87-16.53C1878.17,1029.56,1876.96,1024.09,1875.34,1018.68z"/>
	<path class="st2" d="M1841.66,1043.03c0.06,6.17,0.49,12.29,1.06,18.39c0.54,6.1,1.28,12.18,2.12,18.25
		c0.85,6.06,1.81,12.11,2.96,18.13c1.13,6.02,2.39,12.03,4.04,17.98c-0.05-6.17-0.48-12.29-1.05-18.39
		c-0.54-6.1-1.28-12.18-2.12-18.24c-0.86-6.06-1.82-12.11-2.97-18.13C1844.57,1054.99,1843.3,1048.98,1841.66,1043.03z"/>
	<path class="st2" d="M1802.77,1074.8c0.08,7.12,0.55,14.19,1.15,21.24c0.57,7.06,1.34,14.09,2.21,21.11
		c0.88,7.02,1.87,14.02,3.06,21c1.16,6.98,2.46,13.95,4.13,20.87c-0.08-7.12-0.54-14.19-1.14-21.24
		c-0.57-7.06-1.34-14.09-2.21-21.11c-0.89-7.02-1.88-14.02-3.06-21C1805.74,1088.68,1804.44,1081.72,1802.77,1074.8z"/>
	<path class="st2" d="M1765.1,1116.56c0.13,5.85,0.66,11.64,1.29,17.42c0.65,5.77,1.44,11.52,2.37,17.24
		c0.92,5.73,1.98,11.43,3.19,17.11c1.23,5.68,2.55,11.34,4.28,16.93c-0.13-5.86-0.66-11.65-1.28-17.42
		c-0.65-5.77-1.44-11.52-2.37-17.24c-0.93-5.72-1.99-11.43-3.19-17.11C1768.14,1127.82,1766.82,1122.16,1765.1,1116.56z"/>
	<path class="st2" d="M1589.63,909.37c3.67,6.36,7.66,12.5,11.75,18.56c4.07,6.07,8.3,12.03,12.61,17.93
		c4.32,5.89,8.73,11.71,13.3,17.42c4.55,5.72,9.21,11.37,14.17,16.78c-3.67-6.37-7.65-12.51-11.74-18.56
		c-4.07-6.07-8.3-12.03-12.61-17.92c-4.33-5.89-8.74-11.71-13.3-17.42C1599.25,920.43,1594.59,914.78,1589.63,909.37z"/>
	<path class="st2" d="M1597.94,996.03c4,6.66,8.31,13.09,12.72,19.45c4.4,6.37,8.95,12.62,13.58,18.8
		c4.64,6.18,9.38,12.29,14.26,18.29c4.87,6.01,9.85,11.94,15.13,17.64c-4-6.67-8.3-13.1-12.72-19.45
		c-4.4-6.37-8.95-12.62-13.59-18.8c-4.65-6.18-9.38-12.29-14.27-18.29C1608.19,1007.67,1603.22,1001.74,1597.94,996.03z"/>
	<path class="st2" d="M1621.22,1082.08c2.52,4.07,5.32,7.89,8.21,11.63c2.9,3.73,5.92,7.36,9.03,10.9c3.11,3.54,6.33,7,9.66,10.36
		c3.34,3.35,6.77,6.61,10.49,9.63c-2.51-4.07-5.31-7.89-8.21-11.63c-2.9-3.73-5.92-7.36-9.04-10.9c-3.12-3.54-6.33-7-9.66-10.35
		C1628.36,1088.36,1624.93,1085.09,1621.22,1082.08z"/>
</g>
<g>
	<path class="st3" d="M331.49,352.15c4-13.99,7.79-28.04,11.21-42.18c3.43-14.14,6.5-28.38,8.94-42.75
		c2.43-14.36,4.35-28.84,4.75-43.47c0.09-3.66,0.06-7.32-0.14-10.99c-0.2-3.67-0.57-7.34-1.29-10.98c-0.76-3.62-1.75-7.29-3.88-10.6
		c-1.06-1.62-2.52-3.19-4.51-4.05c-0.98-0.43-2.07-0.65-3.14-0.65c-1.07,0.01-2.11,0.23-3.07,0.56c-1.94,0.68-3.58,1.79-5.05,3.02
		c-1.47,1.24-2.78,2.62-3.97,4.06c-2.39,2.9-4.37,6.06-6.14,9.31c-3.52,6.52-6.17,13.43-8.29,20.47c-4.21,14.1-6.3,28.77-6.64,43.45
		c-0.68,29.38,5.84,58.92,18.85,85.34l-0.21-0.7L342.59,464l13.97,111.97L370.8,687.9l14.47,111.9
		c9.71,74.59,19.61,149.16,29.67,223.71l7.63,55.9l3.82,27.95l3.91,27.94c5.24,37.25,10.35,74.51,15.77,111.74
		c-4.16-37.39-8.63-74.73-12.97-112.1l-3.28-28.02l-3.37-28.01l-6.75-56.01c-9.1-74.67-18.36-149.32-27.82-223.95l-14.28-111.93
		l-14.51-111.9l-14.77-111.86l-15.07-111.83l-0.05-0.38l-0.16-0.32c-12.94-25.68-19.6-54.51-19.2-83.32
		c0.22-14.39,2.05-28.81,6-42.65c1.98-6.91,4.49-13.68,7.8-20.02c1.67-3.15,3.54-6.2,5.74-8.95c1.1-1.37,2.29-2.66,3.59-3.77
		c1.3-1.12,2.71-2.08,4.22-2.62c0.75-0.26,1.51-0.43,2.26-0.45c0.75,0,1.48,0.14,2.17,0.42c1.38,0.56,2.57,1.74,3.5,3.12
		c1.87,2.8,2.91,6.28,3.66,9.73c0.73,3.49,1.15,7.06,1.39,10.66c0.24,3.59,0.31,7.21,0.27,10.82c-0.21,14.48-1.94,28.94-4.17,43.28
		C345.67,295.69,339,324.05,331.49,352.15z"/>
	<path class="st3" d="M333.71,373.31c13.95-20.72,28.21-41.25,43.77-60.69c7.81-9.68,15.86-19.2,24.73-27.77
		c4.44-4.25,9.08-8.34,14.09-11.57c2.48-1.57,5.15-2.99,7.63-3.46c1.22-0.24,2.32-0.18,2.97,0.18c0.65,0.33,1.16,0.95,1.5,2.05
		c0.35,1.05,0.46,2.39,0.43,3.75c-0.03,1.37-0.2,2.79-0.47,4.22c-0.54,2.86-1.4,5.72-2.44,8.54c-2.1,5.63-4.86,11.09-7.95,16.34
		c-6.24,10.49-13.92,20.16-22.58,28.79c-4.33,4.32-8.93,8.36-13.74,12.12c-4.8,3.77-9.84,7.24-15.08,10.34
		c-10.47,6.24-21.79,11.01-33.55,14.08l2.44,0.27c-24.92-12.9-47.43-30.56-65.61-51.98c-9.1-10.68-17.22-22.24-23.67-34.65
		c-3.21-6.2-6.02-12.62-8.02-19.2c-0.99-3.29-1.79-6.62-2.18-9.92c-0.19-1.64-0.28-3.28-0.18-4.82c0.1-1.53,0.4-3.01,0.94-4.04
		c0.57-1.04,1.13-1.47,2.12-1.64c1-0.17,2.43,0.12,3.84,0.68c2.85,1.14,5.67,3.14,8.31,5.29c5.3,4.37,10.08,9.58,14.64,14.93
		c9.11,10.77,17.27,22.44,25.05,34.33C306.26,323.28,320.17,348.2,333.71,373.31c-12.11-25.83-25.23-51.23-40.07-75.7
		c-7.5-12.18-15.4-24.16-24.41-35.43c-4.54-5.6-9.35-11.04-14.96-15.88c-2.84-2.38-5.83-4.68-9.58-6.29
		c-1.88-0.76-4.02-1.43-6.58-1.13c-1.26,0.16-2.61,0.64-3.71,1.46c-1.11,0.8-1.93,1.86-2.51,2.91c-1.15,2.13-1.51,4.24-1.7,6.25
		c-0.17,2.01-0.09,3.95,0.09,5.85c0.37,3.8,1.2,7.44,2.23,10.98c2.07,7.09,4.94,13.82,8.2,20.32c6.57,12.98,14.78,25.03,24.08,36.13
		c18.69,22.12,41.75,40.56,67.53,53.79l1.17,0.6l1.26-0.33c24.85-6.55,47.41-20.44,65.19-38.66c8.91-9.11,16.77-19.25,23.16-30.31
		c3.19-5.54,6-11.32,8.12-17.44c1.06-3.06,1.95-6.21,2.5-9.51c0.27-1.65,0.45-3.34,0.45-5.09c-0.02-1.75-0.14-3.58-0.81-5.49
		c-0.33-0.95-0.79-1.92-1.51-2.82c-0.7-0.9-1.67-1.69-2.74-2.18c-1.07-0.5-2.21-0.74-3.25-0.77c-1.04-0.03-2.04,0.07-2.95,0.28
		c-3.67,0.82-6.53,2.56-9.28,4.35c-5.43,3.65-10.06,8.04-14.51,12.53c-8.83,9.06-16.71,18.85-24.23,28.88
		C359.95,330.74,346.44,351.81,333.71,373.31z"/>
	<path class="st3" d="M335.92,408.01c6.44-5.15,12.91-10.26,19.41-15.34c6.49-5.09,12.98-10.16,19.53-15.18
		c13.09-10.02,26.32-19.86,39.78-29.34c13.46-9.48,27.07-18.76,41.17-27.12c7.05-4.16,14.23-8.13,21.6-11.46
		c3.68-1.64,7.44-3.14,11.18-4.04c1.84-0.44,3.75-0.71,5.2-0.53c0.72,0.09,1.19,0.33,1.3,0.47c0.07,0.07,0.1,0.14,0.16,0.28
		c0.05,0.14,0.08,0.38,0.08,0.68c-0.01,1.24-0.67,3.05-1.5,4.69c-0.84,1.67-1.88,3.33-3.01,4.95c-2.26,3.24-4.85,6.33-7.57,9.31
		c-5.46,5.95-11.44,11.5-17.64,16.77c-12.45,10.52-25.9,19.89-39.96,28.17c-14.08,8.25-28.77,15.47-43.98,21.28
		c-15.21,5.81-30.96,10.21-46.99,12.71l0.83-0.03c-31.33-2.78-62.53-8.18-92.32-18.02c-14.88-4.9-29.44-10.87-42.95-18.59
		c-6.72-3.88-13.22-8.2-18.92-13.27c-2.83-2.54-5.5-5.25-7.58-8.22c-1.02-1.48-1.93-3.02-2.47-4.55c-0.57-1.52-0.72-3-0.41-4.11
		c0.3-1.09,1.12-2,2.46-2.7c1.31-0.72,3.03-1.12,4.77-1.37c3.55-0.46,7.38-0.21,11.15,0.3c7.59,1.06,15.14,3.22,22.55,5.72
		c14.83,5.06,29.18,11.73,43.19,18.99c14.03,7.24,27.74,15.15,41.2,23.49c6.73,4.17,13.39,8.45,20,12.81
		C322.81,399.1,329.39,403.52,335.92,408.01c-6.32-4.78-12.69-9.49-19.13-14.12c-6.46-4.59-12.99-9.1-19.59-13.5
		c-13.2-8.8-26.68-17.23-40.57-24.97c-13.93-7.66-28.24-14.76-43.29-20.3c-7.53-2.73-15.26-5.08-23.35-6.37
		c-4.05-0.61-8.2-1-12.53-0.52c-2.16,0.28-4.39,0.7-6.61,1.83c-1.1,0.56-2.19,1.29-3.14,2.29c-0.94,1-1.7,2.26-2.11,3.61
		c-0.82,2.73-0.37,5.37,0.38,7.55c0.76,2.22,1.86,4.14,3.06,5.93c2.42,3.57,5.31,6.58,8.35,9.35c6.1,5.52,12.83,10.09,19.78,14.2
		c13.94,8.15,28.78,14.44,43.94,19.57c15.19,5.09,30.73,9.01,46.41,12.05c15.69,3.02,31.52,5.2,47.42,6.53l0.42,0.04l0.4-0.06
		c16.56-2.64,32.74-7.23,48.32-13.23c15.58-6.01,30.59-13.42,44.86-22.02c14.28-8.59,27.9-18.28,40.55-29.17
		c6.32-5.46,12.39-11.22,17.97-17.52c2.79-3.16,5.46-6.44,7.87-10c1.2-1.79,2.34-3.64,3.32-5.67c0.49-1.01,0.94-2.07,1.3-3.22
		c0.36-1.15,0.65-2.39,0.65-3.86c-0.01-0.73-0.1-1.53-0.39-2.36c-0.29-0.82-0.79-1.67-1.47-2.31c-1.39-1.31-3-1.7-4.31-1.86
		c-2.67-0.26-4.88,0.21-7.04,0.73c-4.27,1.11-8.17,2.77-11.99,4.53c-7.62,3.57-14.8,7.77-21.85,12.14
		c-14.07,8.79-27.58,18.34-40.81,28.24c-13.21,9.92-26.16,20.17-38.96,30.59c-6.39,5.22-12.76,10.47-19.06,15.79
		C348.41,397.23,342.15,402.6,335.92,408.01z"/>
</g>
<g>
	<path class="st4" d="M1419.86,531.84c16.42,16.42,10.02,196.22-7.52,203.74c-17.53,7.52-161.15,9.19-167,0
		c-5.85-9.18-22.54-192.88-15.87-203.74C1236.16,520.98,1403.99,515.97,1419.86,531.84z"/>
	<path class="st5" d="M1399.17,554.51c12.69,12.69,7.75,151.71-5.81,157.52c-13.56,5.81-124.6,7.1-129.12,0
		c-4.52-7.1-17.43-149.13-12.27-157.52C1257.13,546.12,1386.9,542.24,1399.17,554.51z"/>
</g>
<g>
	<path class="st4" d="M1002.46,386.29c-16.41,16.42-10.02,196.22,7.52,203.74c17.53,7.52,161.15,9.19,167,0
		c5.84-9.18,22.54-192.88,15.87-203.74C1186.16,375.43,1018.33,370.42,1002.46,386.29z"/>
	<path class="st5" d="M1023.15,408.96c-12.69,12.69-7.75,151.71,5.81,157.52c13.56,5.81,124.6,7.1,129.12,0
		c4.52-7.1,17.43-149.13,12.27-157.52C1165.18,400.57,1035.42,396.69,1023.15,408.96z"/>
</g>
<g>
	<path class="st1" d="M582.76,1306.66c0,0,103.84-752.16-90.75-808.29c-194.59-56.13-37.42,670.77-37.42,670.77
		S363.85,338.4,123.42,433.82c-240.43,95.42,232.01,870.97,309.66,889.68C510.73,1342.21,582.76,1306.66,582.76,1306.66z"/>
	<g>
		<path class="st2" d="M481.37,496.02l0.62,25.8l0.73,25.8l1.46,51.6c1.07,34.39,2.17,68.79,3.38,103.18
			c1.14,34.39,2.49,68.77,3.74,103.16l4.06,103.15l4.37,103.14c1.57,34.37,3.02,68.75,4.7,103.12l2.47,51.56l2.58,51.55l2.76,51.54
			l1.38,25.77l1.49,25.77l-0.62-25.8l-0.73-25.8l-1.46-51.6l-1.63-51.59l-1.75-51.59c-1.14-34.39-2.49-68.77-3.74-103.16
			l-4.06-103.15l-4.37-103.14c-1.56-34.37-3.03-68.75-4.7-103.12c-1.6-34.37-3.31-68.74-5.05-103.11l-2.75-51.54l-1.38-25.77
			L481.37,496.02z"/>
		<path class="st2" d="M589.11,652.05c-8.53,11.51-16.83,23.19-25.12,34.86l-12.35,17.57l-12.24,17.64
			c-4.09,5.87-8.1,11.81-12.15,17.71c-4.03,5.91-8.11,11.8-12.09,17.75c-7.98,11.88-16.05,23.71-23.93,35.66l4.44-0.35
			c-8.28-8.83-16.53-17.68-24.89-26.43l-12.5-13.16l-12.59-13.08c-4.19-4.37-8.4-8.72-12.63-13.04c-4.24-4.32-8.43-8.68-12.7-12.98
			c-8.5-8.62-17.03-17.21-25.7-25.68c7.82,9.25,15.79,18.37,23.77,27.47c3.98,4.56,8.02,9.06,12.03,13.6
			c4.01,4.54,8.05,9.04,12.1,13.54l12.14,13.49l12.23,13.41c8.13,8.97,16.37,17.83,24.58,26.72l2.42,2.62l2.02-2.97
			c8.04-11.84,15.89-23.81,23.83-35.72c3.98-5.95,7.87-11.96,11.79-17.94c3.91-6,7.86-11.96,11.73-17.98l11.64-18.05l11.53-18.12
			C574.09,676.45,581.72,664.33,589.11,652.05z"/>
		<path class="st2" d="M610.44,943.14c-9.29,1.99-18.52,4.18-27.74,6.39c-9.21,2.25-18.43,4.5-27.61,6.88l-13.77,3.55l-13.74,3.65
			c-9.17,2.4-18.29,4.98-27.44,7.48l2.73,0.68l-5.8-5.55l-5.84-5.5l-11.69-11.01c-3.89-3.68-7.85-7.28-11.77-10.92
			c-3.94-3.63-7.84-7.29-11.81-10.87l-11.88-10.8l-11.98-10.7c-8.04-7.08-16.07-14.17-24.29-21.05
			c7.29,7.86,14.78,15.52,22.26,23.19l11.3,11.42l11.39,11.32c3.78,3.79,7.64,7.5,11.46,11.24c3.84,3.73,7.64,7.5,11.51,11.19
			l11.59,11.11l5.79,5.56l5.84,5.51l1.19,1.12l1.54-0.44c9.11-2.62,18.25-5.15,27.33-7.86l13.64-4.02l13.61-4.12
			c9.08-2.73,18.12-5.6,27.16-8.46C592.45,949.19,601.47,946.27,610.44,943.14z"/>
		<path class="st2" d="M603.05,1101.53c-8.13,1.31-16.21,2.79-24.29,4.31c-4.04,0.74-8.07,1.56-12.1,2.34
			c-4.03,0.78-8.06,1.58-12.08,2.43l-12.07,2.49l-12.05,2.6l-12.04,2.62l-12.02,2.72l2.79,0.92c-6.44-7.71-13.01-15.32-19.56-22.94
			c-3.26-3.82-6.57-7.6-9.89-11.38l-9.95-11.32l-10.05-11.24l-10.15-11.16c-6.81-7.39-13.64-14.78-20.68-21.98
			c5.98,8.11,12.17,16.03,18.38,23.94l9.39,11.8l9.48,11.72l9.58,11.64c3.19,3.88,6.39,7.76,9.64,11.59
			c6.47,7.69,12.92,15.39,19.5,22.98l1.14,1.31l1.65-0.39l11.99-2.84l11.96-2.95l11.96-2.97l11.93-3.08
			c3.98-1.01,7.95-2.07,11.92-3.14c3.97-1.07,7.94-2.1,11.9-3.22C587.26,1106.15,595.17,1103.93,603.05,1101.53z"/>
		<path class="st2" d="M123.42,426.34l10.98,28.36l11.08,28.32l22.17,56.64c14.87,37.72,29.77,75.44,44.77,113.11
			c14.93,37.7,30.06,75.32,45.1,112.97l45.39,112.85l45.68,112.74c15.33,37.54,30.56,75.12,45.99,112.62l23.1,56.26l23.21,56.22
			l23.37,56.16l11.69,28.08l11.79,28.04l-10.98-28.36l-11.08-28.32l-22.17-56.64l-22.33-56.58l-22.44-56.53
			c-14.93-37.7-30.07-75.32-45.1-112.97l-45.4-112.85L262.57,763.7c-15.33-37.54-30.56-75.12-45.99-112.62
			c-15.36-37.53-30.82-75.01-46.32-112.48l-23.37-56.16l-11.69-28.08L123.42,426.34z"/>
		<path class="st2" d="M294.77,538.87c-4.89,14.97-9.66,29.98-14.36,45l-7.01,22.55c-2.31,7.52-4.67,15.04-6.94,22.57
			c-4.57,15.06-9.18,30.12-13.65,45.21l-6.75,22.63l-6.66,22.65l4.57-1.3l-23.22-20.96l-23.32-20.85
			c-15.52-13.93-31.18-27.7-46.78-41.53l-23.52-20.62c-7.83-6.88-15.74-13.68-23.6-20.53c-15.78-13.64-31.58-27.25-47.57-40.66
			c15.03,14.47,30.25,28.73,45.5,42.96c7.65,7.09,15.25,14.23,22.93,21.28l23.01,21.19c15.42,14.04,30.78,28.15,46.29,42.08
			l23.22,20.96l23.32,20.85l3.34,2.98l1.23-4.29l6.51-22.7l6.42-22.72c4.31-15.14,8.48-30.32,12.69-45.49
			c2.12-7.58,4.16-15.18,6.23-22.78l6.16-22.8C286.87,569.36,290.88,554.14,294.77,538.87z"/>
		<path class="st2" d="M386.77,794.8c-5.17,12.13-10.09,24.36-15.03,36.59l-7.29,18.38l-7.17,18.42c-2.4,6.14-4.75,12.29-7.09,18.45
			l-7.03,18.47l-13.77,37.05l2.39-1.86c-12.33,1.38-24.67,2.68-36.99,4.12c-12.32,1.46-24.65,2.86-36.96,4.43
			c-12.32,1.5-24.62,3.13-36.92,4.77c-12.3,1.7-24.59,3.39-36.86,5.32c12.4-0.7,24.78-1.64,37.15-2.58c12.37-0.99,24.74-2,37.1-3.13
			c12.36-1.06,24.71-2.29,37.06-3.47c12.35-1.19,24.68-2.52,37.03-3.78l1.77-0.18l0.61-1.68l13.57-37.12l6.64-18.61
			c2.22-6.2,4.43-12.41,6.58-18.64l6.5-18.67l6.39-18.71C378.63,819.89,382.83,807.39,386.77,794.8z"/>
		<path class="st2" d="M275.79,1123.79c10.97,1.36,21.96,2.45,32.95,3.45c5.5,0.5,10.99,0.99,16.49,1.41c5.5,0.43,11,0.91,16.5,1.27
			l16.51,1.15l16.51,0.99l8.26,0.49l8.26,0.41l16.52,0.81l1.96,0.1l0.71-1.77l7.52-18.7l7.32-18.79c2.38-6.29,4.79-12.56,7.09-18.88
			c1.17-3.15,2.32-6.32,3.44-9.49c1.14-3.17,2.25-6.34,3.33-9.53c-1.52,3.01-3.02,6.02-4.48,9.05c-1.48,3.02-2.94,6.05-4.37,9.1
			c-2.91,6.07-5.7,12.18-8.52,18.28l-8.3,18.38l-8.09,18.46l2.68-1.67l-16.51-1l-8.26-0.49l-8.26-0.42l-16.52-0.82l-16.53-0.66
			c-5.51-0.24-11.03-0.37-16.54-0.54c-5.51-0.18-11.03-0.3-16.55-0.4C297.88,1123.74,286.84,1123.63,275.79,1123.79z"/>
	</g>
</g>
<path class="st6" d="M1618.5,1067.17l28.28-177.97c7.22-45.43-27.68-86.63-73.68-86.98l-1103.36-8.5
	c-47.26-0.36-83.13,42.44-74.5,88.91l30.29,163.14L1618.5,1067.17z"/>
<path class="st7" d="M1624.34,1045.12l-1190.38-13.54c-31.26-0.36-57.56,23.36-60.43,54.49l-11.39,123.54h1324.7l-3.21-106.3
	C1682.66,1071.15,1656.5,1045.48,1624.34,1045.12z"/>
<path class="st8" d="M1505.78,1045.77c0,0,42.31-157.25,3.61-177.01c-38.7-19.76-352.37-23.88-381.19-3.29
	c-28.82,20.58-18.11,176.79,0,183.9C1146.32,1056.47,1505.78,1045.77,1505.78,1045.77z"/>
<path class="st8" d="M913.22,1045.77c0,0,42.31-157.25,3.61-177.01c-38.7-19.76-352.37-23.88-381.19-3.29
	c-28.82,20.58-18.11,176.79,0,183.9C553.76,1056.47,913.22,1045.77,913.22,1045.77z"/>
<polygon class="st6" points="1708.24,1188.2 333.32,1188.2 333.32,1445.07 1697.76,1445.07 "/>
<polygon class="st9" points="495.81,723.42 493.07,746.66 528.61,758.96 486.24,793.14 439.76,782.2 445.23,753.5 457.53,746.66 
	447.97,707.02 480.77,707.02 "/>
<path class="st10" d="M444.55,778.78l42.09,14.03l10.68-8.61l10.51-32.43l-14.76-5.11l1.14-9.69c-5.67-1.84-20.71-5.75-30.53,0.8
	c-2.4,1.6-4.59,4.14-6.56,7.19l0.41,1.7l-2.14,1.19C448.35,760.53,444.55,778.78,444.55,778.78z"/>
<path class="st10" d="M513.58,675.58c-7.24-36.21-35.92-49.14-53.31-38.27c-14.22,8.88-30.73,35.09-21.04,58.36
	c-3.23,0.64-6.3,2.79-6.3,8.62c0,12.3,9.57,12.3,13.67,9.57c1.38-0.92,2.44-2.15,3.25-3.37c7.2,6.64,17.65,12.54,32.29,17.04
	C511.61,736.59,519.04,702.92,513.58,675.58z"/>
<path class="st11" d="M493.69,640.84c-1.8,1.83-3.84,3.4-6.08,4.67c-21.87,12.3-41.77,6.47-41.77,6.47
	c-8.09,12.06-12.93,28.5-6.6,43.69c-3.23,0.66-6.3,2.79-6.3,8.63c0,12.3,9.57,12.3,13.67,9.57c1.38-0.92,2.45-2.15,3.25-3.38
	c1.3,1.2,2.72,2.38,4.24,3.53l0,0c0.42,3.16-1.5,6.19-4.56,7.11c-2.64,0.8-6.07,1.69-9.77,2.31c-8.2,1.37-25.97-5.47-27.34-25.97
	c-1.37-20.5,12.3-27.34,20.5-64.24c8.2-36.91,31.44-58.78,54.68-50.58C508.45,589.99,509.5,624.86,493.69,640.84z"/>
<path class="st12" d="M413.79,1055.58c0,0-16.4,72.45-9.57,161.29c6.83,88.85,13.67,513.95,62.88,530.36
	c49.21,16.4,65.61-31.44,75.18-65.61c9.57-34.17,13.67-410.07,13.67-410.07s9.57,35.54,12.3,51.94c2.73,16.4-13.67,282.95,0,340.36
	c13.67,57.41,25.97,80.65,56.04,86.11c30.07,5.47,45.11-235.11,50.58-330.79c5.47-95.68,12.3-139.42,0-209.13
	c-12.3-69.71-51.94-176.33-51.94-176.33L413.79,1055.58z"/>
<path class="st13" d="M638.14,1733.9c-8.65-8.68-29.74-37.83-32.98-117.89c-3.23-79.78,34.35-401.79,50.37-484.03l0-0.01
	c-0.95-3.22-1.91-6.42-2.88-9.59c-0.01-0.02-0.01-0.04-0.02-0.06c-11.1-36.52-22.61-69.04-27.4-82.29
	c-0.01-0.03-0.02-0.06-0.03-0.09c-0.41-1.13-0.77-2.12-1.07-2.96c0,0,0,0,0,0c-0.14-0.38-0.26-0.72-0.38-1.04
	c-0.02-0.06-0.05-0.13-0.07-0.19c-0.22-0.61-0.4-1.09-0.52-1.43c-0.02-0.04-0.03-0.08-0.04-0.11c-0.05-0.14-0.1-0.26-0.12-0.34
	c0,0,0-0.01-0.01-0.02c-0.03-0.08-0.05-0.13-0.05-0.13l-209.14,21.87c0,0-0.01,0.03-0.02,0.08c0,0,0,0.01,0,0.01
	c-0.01,0.04-0.02,0.11-0.04,0.18c-0.01,0.03-0.01,0.06-0.02,0.09c-0.09,0.43-0.27,1.24-0.51,2.43c0,0,0,0,0,0
	c-0.06,0.29-0.12,0.61-0.19,0.94c0,0.02-0.01,0.05-0.01,0.07c-0.07,0.34-0.14,0.71-0.22,1.1c27.63,14.05,104.55,56.06,121.3,96.25
	c20.5,49.21,23.05,119.26,23.05,119.26l0,0c0.04,0.15,0.08,0.32,0.13,0.48c0.06,0.21,0.11,0.43,0.17,0.65
	c0.05,0.18,0.1,0.37,0.15,0.56c0.06,0.23,0.12,0.47,0.19,0.71c0.05,0.19,0.1,0.38,0.15,0.58c0.07,0.28,0.15,0.57,0.23,0.87
	c0.05,0.18,0.09,0.35,0.14,0.54c0.12,0.45,0.24,0.92,0.36,1.4c0.04,0.15,0.08,0.3,0.12,0.45c0.1,0.39,0.2,0.78,0.3,1.18
	c0.04,0.16,0.08,0.32,0.13,0.49c0.1,0.4,0.21,0.81,0.31,1.22c0.04,0.17,0.08,0.33,0.13,0.5c0.14,0.56,0.29,1.13,0.44,1.71
	c0.02,0.08,0.04,0.16,0.06,0.23c0.13,0.51,0.26,1.03,0.39,1.55c0.05,0.2,0.1,0.4,0.15,0.6c0.11,0.43,0.22,0.86,0.32,1.29
	c0.05,0.19,0.1,0.38,0.15,0.58c0.12,0.5,0.25,1,0.37,1.5c0.04,0.15,0.07,0.29,0.11,0.44c0.16,0.64,0.32,1.29,0.48,1.94
	c0.03,0.11,0.05,0.21,0.08,0.32c0.13,0.54,0.27,1.08,0.4,1.63c0.05,0.2,0.1,0.39,0.14,0.59c0.12,0.48,0.23,0.96,0.35,1.43
	c0.05,0.2,0.1,0.4,0.15,0.6c0.15,0.61,0.3,1.23,0.44,1.84c0.01,0.04,0.02,0.08,0.03,0.12c0.16,0.66,0.31,1.32,0.47,1.98
	c0.04,0.18,0.08,0.35,0.12,0.52c0.12,0.49,0.23,0.98,0.34,1.47c0.05,0.2,0.09,0.4,0.14,0.6c0.12,0.5,0.23,1,0.34,1.49
	c0.04,0.16,0.07,0.31,0.11,0.47c0.15,0.65,0.29,1.3,0.44,1.94c0.02,0.08,0.03,0.15,0.05,0.22c0.12,0.55,0.24,1.1,0.36,1.64
	c0.04,0.19,0.08,0.38,0.12,0.57c0.1,0.44,0.19,0.88,0.28,1.31c0.04,0.2,0.08,0.39,0.12,0.58c0.1,0.48,0.2,0.96,0.3,1.43
	c0.02,0.11,0.05,0.23,0.07,0.34c0.12,0.58,0.23,1.15,0.34,1.71c0.03,0.14,0.05,0.27,0.08,0.41c0.08,0.41,0.16,0.82,0.24,1.22
	c0.03,0.18,0.07,0.36,0.1,0.54c0.07,0.37,0.14,0.72,0.2,1.08c0.03,0.16,0.06,0.32,0.09,0.48c0.09,0.5,0.17,0.98,0.25,1.45
	c2.73,16.4-13.67,282.95,0,340.36c13.67,57.41,25.97,80.65,56.04,86.11C629.32,1750.88,633.93,1744.91,638.14,1733.9z"/>
<path class="st9" d="M672,1017c0,0,9,22-2,33s-26,12-30,7s6-30,8-33S672,1017,672,1017z"/>
<path class="st14" d="M451.38,750.08c0,0,15.72,29.39,33.49,22.55c17.77-6.83,11.3-24.9,11.3-24.9s22.87-3.81,59.78,1.66
	C592.86,754.86,647,772,677,818c80.44,123.34-5,199-5,199l-16,10l-18.04,51.82c-84,15.49-159.86,10.6-224.17-23.24l-16.4-99.78
	c0,0-38.27-34.17-34.17-87.48c4.1-53.31,27.34-83.38,46.47-95.68C428.83,760.33,451.38,750.08,451.38,750.08z"/>
<path class="st9" d="M654.37,869.59c-2.5,21.37-15.3,40.36-32.52,52.97c-17.13,12.54-37.26,19.11-58.08,21.88
	c-15.96,6.46-33.36,9.17-50.34,12.29c-11.17,2.05-22.08,5.05-33.16,7.53c-11.7,2.63-23.56,4.87-35.54,5.79
	c-12.85,0.99-27.18,1.28-39.22-4.16c-2.61-1.18-5-2.61-7.16-4.25l15.44,93.92c64.31,33.83,140.18,38.73,224.17,23.24L656,1027l16-10
	c0,0,65.77-58.25,27.56-155.85C684.57,864.35,669.49,867.1,654.37,869.59z"/>
<path class="st15" d="M645,841c5,72-63,95-111,75c-38.04-15.85-80.57-57.25-80.57-57.25l-66.64,85.15
	c5.91,7.71,10.59,11.9,10.59,11.9l16.4,99.78c64.31,33.83,140.18,38.73,224.17,23.24L656,1027C661.64,1009.58,668.65,886.02,645,841
	z"/>
<path class="st15" d="M472.65,1748.84c0,0-12.39,25.73-9.65,36.67c2.73,10.94,97.05,12.3,99.78,6.83
	c2.73-5.47-10.93-23.24-27.34-30.07c-16.4-6.83-37.64-13.43-37.64-13.43H472.65z"/>
<path class="st15" d="M613.62,1744.5c0,0-10.91,22.67-8.5,32.3c2.41,9.63,85.5,10.84,87.9,6.02c2.41-4.82-9.63-20.47-24.08-26.49
	c-14.45-6.02-33.16-11.83-33.16-11.83H613.62z"/>
<path class="st10" d="M706.31,947.6l-20.5-20.5c0,0-64.24,27.34-129.86,13.67c-65.61-13.67-97.05-91.58-97.05-91.58l-91.63-7.88
	c-1.9,8.25-3.3,17.24-4.05,27.02c-4.1,53.31,34.17,87.48,34.17,87.48C482.14,1050.11,654.37,1063.78,706.31,947.6z"/>
<path class="st10" d="M685.81,927.09c0,0,5.47-25.97,15.04-25.97c9.57,0,0,12.3,0,12.3s23.24-27.34,31.44-12.3
	c8.2,15.04-25.97,46.47-25.97,46.47L685.81,927.09z"/>
<path class="st16" d="M486.64,704.96l19.36,0.82c0,0-1.81,10.21-9.11,10.11C489.59,715.8,486.64,704.96,486.64,704.96z"/>
<g>
	<g>
		<polygon class="st17" points="986,1193 936,1662 968,1662 1073,1193 		"/>
		<path class="st18" d="M986,1193l-11.64,117.92l-11.8,117.38l-5.9,58.58l-6.01,58.49l-6.05,58.46l-6.17,58.43l-2.43-2.7l32-0.03
			l-2.41,1.93l26.3-117.24l26.5-117.2l26.8-117.13l13.43-58.56l13.59-58.52l0.81,1.01L986,1193z M986,1193l87-0.83l1.03-0.01
			l-0.22,1.02l-12.66,58.73l-12.82,58.69l-25.7,117.37l-26,117.3l-26.2,117.26l-0.43,1.93l-1.98,0l-32-0.03l-2.72,0l0.29-2.7
			l6.33-58.82l6.45-58.79l6.49-58.76l6.6-58.67l13.2-117.12L986,1193z"/>
	</g>
	<g>
		<g>
			<polygon class="st17" points="1327,1193 1377,1662 1345,1662 1240,1193 			"/>
			<path class="st18" d="M1327,1193l13.36,116.58l13.2,117.12l6.6,58.67l6.49,58.76l6.45,58.79l6.33,58.82l0.29,2.7l-2.72,0
				l-32,0.03l-1.98,0l-0.43-1.93l-26.2-117.26l-26-117.3l-25.7-117.37l-12.82-58.69l-12.66-58.73l-0.22-1.02l1.03,0.01L1327,1193z
				 M1327,1193l-87,0.83l0.81-1.01l13.59,58.52l13.43,58.56l26.8,117.13l26.5,117.2l26.3,117.24l-2.41-1.93l32,0.03l-2.43,2.7
				l-6.17-58.43l-6.05-58.46l-6.01-58.49l-5.9-58.58l-11.8-117.38L1327,1193z"/>
		</g>
	</g>
	<path class="st14" d="M1270.16,1121.37c-2.79-18.15-22.34-13.96-22.34-13.96s-11.17,43.28,2.79,43.64
		C1264.58,1151.41,1272.95,1139.52,1270.16,1121.37z M1250.61,1144.52v-30.13c0,0,13.96,0,13.96,13.96
		C1264.58,1143.71,1250.61,1144.52,1250.61,1144.52z"/>
	<polygon class="st15" points="1250.61,1163.25 1193.37,1163.25 1186.39,1092.05 1254.8,1092.05 	"/>
	<g>
		<path class="st17" d="M908,1164h492l0,0c-6.42,32.5-35.74,56-69.87,56H978.16c-31.76,0-59.67-20.41-68.4-50.02L908,1164z"/>
		<path class="st18" d="M908,1164l245.17-1.65l61.61-0.37l61.71-0.23c41.15-0.18,82.34-0.17,123.5-0.22l3.15,0l-0.72,2.96l-1.05,4.3
			c-0.18,0.71-0.33,1.44-0.55,2.14l-0.72,2.09c-0.5,1.39-0.91,2.81-1.48,4.16l-1.8,4.04c-2.63,5.26-5.67,10.37-9.56,14.81
			c-0.47,0.57-0.92,1.15-1.4,1.71l-1.54,1.59c-1.04,1.04-2.02,2.15-3.11,3.14l-3.33,2.9l-0.83,0.72l-0.89,0.66l-1.78,1.31
			c-2.31,1.83-4.9,3.25-7.39,4.81c-1.29,0.7-2.62,1.33-3.93,2l-1.98,0.98l-2.05,0.82c-5.39,2.37-11.15,3.77-16.92,4.8l-4.37,0.56
			l-1.09,0.14l-1.1,0.05l-2.2,0.09c-2.97,0.17-5.79,0.13-8.63,0.13l-34.12-0.03l-136.5-0.41l-136.5-0.72l-34.12-0.28
			c-5.65,0.01-11.47-0.19-17.15-1.09c-5.66-1.05-11.2-2.65-16.51-4.85c-5.26-2.32-10.25-5.18-14.89-8.56
			c-4.56-3.48-8.71-7.46-12.39-11.84c-3.61-4.45-6.6-9.35-9.07-14.49l-1.67-3.94c-0.3-0.65-0.51-1.33-0.73-2.01l-0.67-2.03
			l-0.67-2.03l-0.59-2.06L908,1164z M908,1164l1.26,4.09l0.63,2.02l0.71,2.01l0.71,2.01c0.24,0.67,0.46,1.34,0.77,1.98l1.75,3.88
			c2.57,5.05,5.66,9.84,9.32,14.15c3.71,4.27,7.88,8.12,12.43,11.47c4.62,3.24,9.58,5.97,14.78,8.16c5.24,2.07,10.7,3.54,16.24,4.47
			c5.59,0.78,11.16,0.89,16.88,0.77l34.12-0.28l136.5-0.72l136.5-0.41l34.12-0.03c2.84,0,5.72,0.03,8.42-0.14l2.06-0.09l1.03-0.04
			l1.02-0.13l4.09-0.53c5.4-0.98,10.78-2.29,15.81-4.52l1.91-0.77l1.84-0.92c1.22-0.63,2.46-1.22,3.67-1.88
			c2.32-1.46,4.74-2.79,6.89-4.5l1.66-1.22l0.83-0.61l0.77-0.68l3.1-2.71c1.02-0.92,1.92-1.96,2.89-2.93l1.43-1.48l1.3-1.59
			c3.61-4.14,6.45-8.88,8.9-13.77l1.68-3.75c0.54-1.26,0.92-2.58,1.38-3.87l0.67-1.94c0.2-0.65,0.34-1.33,0.51-1.99l0.98-3.99
			l2.43,2.95c-40.84-0.06-81.65-0.04-122.5-0.22l-61.29-0.23l-61.39-0.37L908,1164z"/>
	</g>
	<path class="st19" d="M992,1014c0,0-9,104,67,112s82-61,82-61h-24c-44,34-87.61,1.62-112-51H992z"/>
	<ellipse class="st14" cx="1010.5" cy="1099.5" rx="35.5" ry="26.5"/>
	<path class="st20" d="M960.5,1109.5l228-23c0,0-3,76-106,77S960.5,1109.5,960.5,1109.5z"/>
	<path class="st8" d="M1206,1138h156c0,0,6.84,25.03-42.58,25.51s-77.42,7.51-94.42,0S1206,1138,1206,1138z"/>
	<g>
		<g>
			<path class="st21" d="M1222.9,1083.81c-2.57-8.6-6.29-16.6-9.74-24.84c-1.76-4.12-3.49-8.24-4.78-12.78
				c-0.3-1.15-0.57-2.33-0.71-3.64c-0.07-0.65-0.1-1.35-0.05-2.11c0.06-0.76,0.21-1.63,0.71-2.56c0.47-0.93,1.45-1.85,2.45-2.22
				c0.99-0.4,1.9-0.46,2.67-0.44c1.54,0.07,2.79,0.43,3.98,0.83c1.93,0.66,3.93,1.13,5.57,1.04c1.67-0.11,2.59-0.68,3.37-2.11
				c0.75-1.44,1.09-3.5,1.23-5.56c0.12-2.09,0.12-4.26,0.02-6.45c-0.21-4.38-0.55-8.86-0.67-13.37c-0.02-2.26-0.03-4.53,0.18-6.79
				c0.21-2.26,0.57-4.53,1.38-6.64c-0.52,4.46,0.14,8.84,0.81,13.22c0.67,4.38,1.56,8.75,2.1,13.26c0.27,2.25,0.53,4.54,0.5,6.92
				c-0.04,2.37-0.18,4.86-1.36,7.47c-0.59,1.28-1.56,2.61-2.91,3.5c-1.34,0.91-2.89,1.32-4.29,1.43c-2.84,0.22-5.26-0.47-7.54-1.2
				c-0.93-0.31-1.86-0.53-2.55-0.57c-0.34-0.02-0.57,0.04-0.61,0.05c-0.05,0.02,0.08-0.07,0.02-0.02c-0.1,0.11-0.25,0.98-0.16,1.87
				c0.06,0.91,0.26,1.92,0.5,2.93c0.96,4.1,2.5,8.31,3.84,12.55c0.69,2.12,1.39,4.25,2.05,6.4c0.64,2.16,1.25,4.32,1.82,6.5
				C1221.81,1074.85,1222.73,1079.3,1222.9,1083.81z"/>
		</g>
	</g>
</g>
<g>
	<path class="st14" d="M1619.27,1211.02c86.15-8.36,159.98,21.73,166.82,188.89c6.84,167.16-1.05,370.71-73,371.74
		c-71.95,1.03-134.84,16.08-158.09-44.1c-23.25-60.18-13.67-439.64,13.67-478.09S1619.27,1211.02,1619.27,1211.02z"/>
	<g>
		<path class="st15" d="M1677.49,1212.86c3.89,0.77,7.72,1.68,11.47,2.77l-0.57,556.82c-8.93,0.4-17.64,0.85-26.09,1.17
			L1677.49,1212.86z"/>
		<path class="st15" d="M1651.84,1209.93c5.48,0.21,10.87,0.67,16.16,1.37l-13.53,562.58c-7.56,0.21-14.89,0.26-21.9,0.01
			L1651.84,1209.93z"/>
	</g>
</g>
<g>
	<polygon class="st9" points="1473.6,760.01 1476.27,782.72 1441.53,794.75 1482.95,828.16 1528.39,817.47 1523.04,789.41 
		1511.01,782.72 1520.37,743.97 1488.3,743.97 	"/>
	<path class="st10" d="M1523.71,814.13l-41.15,13.72l-10.44-8.42l-10.28-31.71l14.43-4.99l-1.11-9.47
		c5.54-1.8,20.24-5.62,29.84,0.78c2.35,1.56,4.49,4.05,6.41,7.03l-0.4,1.66l2.09,1.16C1519.99,796.28,1523.71,814.13,1523.71,814.13
		z"/>
	<path class="st10" d="M1456.23,713.24c7.08-35.4,35.12-48.04,52.12-37.42c13.9,8.69,30.04,34.31,20.57,57.05
		c3.16,0.63,6.16,2.73,6.16,8.43c0,12.03-9.35,12.03-13.36,9.35c-1.35-0.9-2.39-2.1-3.18-3.29c-7.04,6.49-17.26,12.25-31.56,16.66
		C1458.15,772.88,1450.88,739.96,1456.23,713.24z"/>
	<path class="st21" d="M1553.78,1084.73c0,0,38.49,119.4,31.81,206.26c-6.68,86.86-35.82,453.87-83.92,469.91
		c-48.11,16.04-64.14-30.74-73.5-64.14c-9.35-33.41-13.36-400.89-13.36-400.89s-9.35,34.74-12.03,50.78
		c-2.67,16.04,13.36,276.61,0,332.74c-13.36,56.12-25.39,78.84-54.79,84.19c-29.4,5.34-44.1-229.84-49.44-323.38
		c-5.34-93.54-12.03-136.3,0-204.45c12.03-68.15,50.78-172.38,50.78-172.38L1553.78,1084.73z"/>
	<path class="st22" d="M1334.45,1747.86c8.46-8.49,29.07-36.99,32.24-115.25c3.16-78-33.58-392.79-49.25-473.2l0-0.01
		c0.93-3.15,1.87-6.28,2.81-9.37c0.01-0.02,0.01-0.04,0.02-0.06c10.85-35.7,22.11-67.5,26.79-80.45c0.01-0.03,0.02-0.06,0.03-0.09
		c0.4-1.11,0.75-2.08,1.05-2.89c0,0,0,0,0,0c0.14-0.37,0.26-0.71,0.37-1.02c0.02-0.06,0.05-0.13,0.07-0.19
		c0.22-0.6,0.39-1.07,0.51-1.39c0.01-0.04,0.03-0.07,0.04-0.11c0.05-0.14,0.09-0.25,0.12-0.33c0,0,0-0.01,0.01-0.02
		c0.03-0.08,0.05-0.12,0.05-0.12l204.45,21.38c0,0,0.01,0.03,0.02,0.08c0,0,0,0.01,0,0.01c0.01,0.04,0.02,0.11,0.04,0.18
		c0.01,0.03,0.01,0.06,0.02,0.09c0.09,0.42,0.26,1.21,0.5,2.37c0,0,0,0,0,0c0.06,0.29,0.12,0.59,0.19,0.92
		c0,0.02,0.01,0.05,0.01,0.07c0.07,0.34,0.14,0.69,0.21,1.07c-27.01,13.73-102.21,54.8-118.58,94.1
		c-20.04,48.11-22.53,116.59-22.53,116.59l0,0c-0.04,0.15-0.08,0.32-0.12,0.47c-0.05,0.21-0.11,0.42-0.17,0.64
		c-0.05,0.18-0.09,0.36-0.14,0.55c-0.06,0.23-0.12,0.46-0.18,0.7c-0.05,0.19-0.1,0.37-0.15,0.57c-0.07,0.28-0.15,0.56-0.22,0.85
		c-0.04,0.18-0.09,0.35-0.14,0.53c-0.12,0.44-0.23,0.9-0.36,1.37c-0.04,0.15-0.08,0.3-0.11,0.44c-0.1,0.38-0.2,0.76-0.3,1.15
		c-0.04,0.16-0.08,0.32-0.12,0.48c-0.1,0.39-0.2,0.79-0.31,1.2c-0.04,0.16-0.08,0.32-0.13,0.49c-0.14,0.55-0.28,1.11-0.43,1.67
		c-0.02,0.08-0.04,0.15-0.06,0.23c-0.13,0.5-0.25,1-0.38,1.52c-0.05,0.19-0.1,0.39-0.15,0.59c-0.11,0.42-0.21,0.84-0.32,1.27
		c-0.05,0.19-0.09,0.38-0.14,0.57c-0.12,0.48-0.24,0.97-0.36,1.46c-0.04,0.14-0.07,0.29-0.11,0.43c-0.16,0.63-0.31,1.26-0.47,1.9
		c-0.03,0.1-0.05,0.21-0.08,0.31c-0.13,0.53-0.26,1.06-0.39,1.59c-0.05,0.19-0.09,0.39-0.14,0.58c-0.11,0.47-0.23,0.93-0.34,1.4
		c-0.05,0.2-0.09,0.39-0.14,0.59c-0.14,0.6-0.29,1.2-0.43,1.8c-0.01,0.04-0.02,0.08-0.03,0.12c-0.15,0.65-0.31,1.29-0.46,1.94
		c-0.04,0.17-0.08,0.34-0.12,0.51c-0.11,0.48-0.22,0.96-0.33,1.44c-0.05,0.2-0.09,0.39-0.14,0.59c-0.11,0.49-0.22,0.98-0.33,1.46
		c-0.04,0.15-0.07,0.31-0.11,0.46c-0.14,0.64-0.29,1.27-0.43,1.9c-0.02,0.07-0.03,0.15-0.05,0.22c-0.12,0.54-0.24,1.07-0.35,1.6
		c-0.04,0.19-0.08,0.37-0.12,0.56c-0.09,0.43-0.19,0.86-0.28,1.28c-0.04,0.19-0.08,0.38-0.12,0.57c-0.1,0.47-0.2,0.94-0.29,1.39
		c-0.02,0.11-0.05,0.22-0.07,0.33c-0.12,0.57-0.23,1.12-0.34,1.67c-0.03,0.14-0.05,0.27-0.08,0.4c-0.08,0.4-0.16,0.8-0.23,1.19
		c-0.03,0.18-0.07,0.35-0.1,0.53c-0.07,0.36-0.13,0.71-0.2,1.05c-0.03,0.16-0.06,0.32-0.08,0.47c-0.09,0.48-0.17,0.96-0.24,1.41
		c-2.67,16.04,13.36,276.61,0,332.74c-13.36,56.12-25.39,78.84-54.79,84.19C1343.07,1764.46,1338.57,1758.62,1334.45,1747.86z"/>
	<path class="st10" d="M1587.95,773.4c75.37-39.92,147.16-82.44,212.67-97.7c8.42-5.92,5.57-21.84,13.43-22.28
		c6.39-0.36,1.37,15.51,1.37,15.51s75.72-0.05,50.16,12.06c-19,9-47.36,18.28-47.36,18.28c-73.19,32.34-126.1,79.04-174.46,123.75
		L1587.95,773.4z"/>
	<path class="st10" d="M1407.18,758.77c-72.53-44.87-141.32-92.1-205.66-111.71c-8.01-6.47-4.1-22.16-11.91-23.13
		c-6.35-0.79-2.4,15.39-2.4,15.39s-75.55-5.12-50.85,8.67c18.36,10.25,46.03,21.41,46.03,21.41
		c70.87,37.16,120.53,87.3,165.8,135.14L1407.18,758.77z"/>
	<path class="st11" d="M1496.23,1762.46c0,0,12.11,25.16,9.44,35.85c-2.67,10.69-94.88,12.03-97.55,6.68
		c-2.67-5.35,10.69-22.72,26.73-29.4c16.04-6.68,36.8-13.13,36.8-13.13H1496.23z"/>
	<path class="st11" d="M1358.43,1758.22c0,0,10.67,22.16,8.31,31.58c-2.35,9.42-83.58,10.59-85.94,5.89s9.42-20.01,23.54-25.9
		c14.13-5.89,32.42-11.57,32.42-11.57H1358.43z"/>
	<path class="st15" d="M1590.35,685.24c-3.52-36.38-31.69-22.3-31.69-22.3s11.74-45.77-14.08-50.46
		c-18.97-3.45-25.89,12.09-28.24,20.59c-10-10.69-22.36-15.06-34.73-10.69c-20.38,7.19-21.41,41.28-5.95,56.9
		c1.76,1.79,3.75,3.33,5.95,4.57c21.38,12.03,40.84,6.32,40.84,6.32c7.91,11.79,12.64,27.86,6.45,42.71
		c3.15,0.64,6.16,2.73,6.16,8.43c0,12.03-9.35,12.03-13.36,9.35c-1.35-0.9-2.39-2.1-3.18-3.3c-1.27,1.18-2.66,2.33-4.14,3.45
		l-0.7,5.2c0,0,6.68,2.67,14.7,4.01c8.02,1.34,25.39-5.35,26.73-25.39c0.19-2.89,0.07-5.5-0.29-7.96c0.19-2.42,0.32-4.93,0.32-7.39
		C1555.15,708.71,1593.88,721.62,1590.35,685.24z"/>
	<path class="st20" d="M1626.58,744.98c-62,36-88,26-110,41l0.18,0.55c-2.05,3.63-16.4,27.77-32.48,21.58
		c-17.37-6.68-11.05-24.34-11.05-24.34c-44.66-18.79-66.66-38.79-100.66-56.79c-48.1,5.66-57.88,38.25-73,59c21,29,56,42,60,82
		c-34.54,99.07-61.18,196.16-42,247c82.11,15.14,192.13,42.08,255,9c-6.29-84.94-3-110,4-159c21-71,55-121,83-142
		C1656.25,791.13,1663.66,766.29,1626.58,744.98z"/>
	<path class="st16" d="M1466.79,749.18l19.36,0.82c0,0-1.81,10.21-9.11,10.11C1469.74,760.01,1466.79,749.18,1466.79,749.18z"/>
	<path class="st23" d="M1322.45,752.27c-9.59,11.11-15.62,23.77-22.87,33.71c20.56,28.39,54.51,41.46,59.69,79.53
		c2.74-9.62,13.29-44.64,25.31-57.53c14-15,27-22,27-22s-8,3-48-11C1346.89,769.14,1332.99,760.43,1322.45,752.27z"/>
	<path class="st24" d="M1523.58,1162.98c0.14,23.39-0.07,46.78-0.24,70.17c-0.31,23.39-0.67,46.78-1.21,70.17l-0.4,17.54
		l-0.53,17.54c-0.33,11.69-0.79,23.38-1.21,35.07c-0.2,5.85-0.44,11.69-0.7,17.53l-0.76,17.53c-0.51,11.69-1.2,23.37-1.8,35.05
		l-1.17,17.51c-0.42,5.84-0.74,11.68-1.25,17.51c-1.01,11.66-1.84,23.34-3.19,34.98l-0.93,8.73l-0.47,4.37l-0.61,4.35l-2.45,17.41
		l-2.67,17.32l-2.42,17.35c-3.03,23.17-5.24,46.44-6.73,69.77c-1.57,23.32-2.37,46.7-2.08,70.09c-0.53-11.68-0.59-23.39-0.45-35.09
		c0.15-11.7,0.47-23.4,1.06-35.09c1.19-23.38,3.15-46.72,5.91-69.97l2.22-17.42l2.59-17.37l2.37-17.34l0.59-4.33l0.45-4.36
		l0.89-8.71c1.3-11.6,2.08-23.27,3.04-34.91c0.49-5.82,0.78-11.66,1.18-17.49l1.11-17.5c2.85-46.67,4.53-93.41,6.09-140.15
		c0.82-23.37,1.43-46.75,2.04-70.13C1522.54,1209.75,1523.04,1186.37,1523.58,1162.98z"/>
</g>
<g>
	<circle class="st8" cx="1407" cy="411" r="129"/>
	<g>
		<g>
			<path class="st2" d="M1350,413c2.81-11.86,7-23.41,12.18-34.51c1.31-2.77,2.66-5.52,4.13-8.22c0.7-1.36,1.48-2.69,2.24-4.02
				l1.14-2c0.37-0.64,0.74-1.28,1.09-1.94c2.81-5.22,4.78-10.88,6.32-16.66c1.55-5.78,2.67-11.7,3.62-17.67l1.37-9.01
				c0.47-3.03,0.93-6.06,1.66-9.19c0.38-1.57,0.79-3.15,1.63-4.9c0.46-0.86,0.95-1.84,2.21-2.78c0.62-0.45,1.48-0.85,2.4-0.92
				c0.87-0.09,1.82,0.15,2.12,0.25c1.79,0.49,3.34,1.22,4.81,2.02c1.47,0.81,2.85,1.71,4.16,2.68c5.23,3.89,9.58,8.77,12.99,14.29
				c3.4,5.52,5.75,11.79,6.56,18.38c0.78,6.6-0.12,13.23-1.83,19.38c-0.84,3.08-1.91,6.07-2.94,8.93c-0.5,1.41-1.02,2.84-1.32,4.01
				c-0.07,0.28-0.13,0.54-0.15,0.72c-0.03,0.17,0.01,0.27-0.03-0.01c-0.03-0.15-0.08-0.4-0.3-0.77c0,0-0.07-0.11-0.22-0.31
				c-0.12-0.15-0.29-0.32-0.39-0.4c-0.11-0.1-0.24-0.19-0.36-0.27c-0.09-0.06-0.17-0.11-0.27-0.15c-0.21-0.1-0.26-0.12-0.4-0.17
				c-0.09-0.03-0.15-0.05-0.22-0.06c-0.21-0.04-0.18-0.03-0.13-0.03l0.27-0.01c1.04-0.09,2.55-0.42,3.95-0.74
				c1.43-0.33,2.89-0.7,4.36-1.07l8.89-2.24c5.99-1.46,12.08-2.73,18.42-3.44c3.17-0.34,6.42-0.53,9.82-0.29
				c1.7,0.13,3.45,0.37,5.25,0.86c1.79,0.5,3.68,1.25,5.44,2.59c1.76,1.31,3.26,3.33,3.97,5.46c0.18,0.51,0.34,1.11,0.43,1.54
				l0.25,1.21c0.17,0.81,0.29,1.62,0.42,2.44c0.48,3.26,0.65,6.59,0.46,9.91c-0.18,3.32-0.73,6.62-1.62,9.84
				c-0.45,1.61-0.99,3.2-1.63,4.76c-0.32,0.78-0.67,1.56-1.05,2.33c-0.19,0.39-0.39,0.77-0.61,1.16c-0.23,0.41-0.4,0.73-0.76,1.27
				l-1.63-5.83c0.94,0.46,1.6,0.84,2.36,1.29c0.74,0.44,1.45,0.91,2.16,1.41c1.41,1,2.77,2.12,4.05,3.44
				c1.26,1.33,2.47,2.85,3.37,4.73c0.92,1.84,1.45,4.12,1.32,6.37c-0.09,1.11-0.28,2.23-0.64,3.24c-0.32,1.02-0.84,2.03-1.16,2.64
				c-0.71,1.41-1.49,2.81-2.29,4.2c-0.82,1.39-1.69,2.77-2.67,4.14c-0.48,0.69-1.02,1.37-1.59,2.06c-0.29,0.35-0.61,0.69-0.95,1.05
				c-0.19,0.19-0.35,0.35-0.57,0.55l-0.34,0.3l-0.21,0.17c-0.11,0.08-0.11,0.09-0.37,0.27l-0.85-6.91c0.65,0.24,1.02,0.42,1.49,0.64
				c0.45,0.21,0.88,0.44,1.31,0.68c0.85,0.48,1.68,1,2.48,1.58c1.6,1.16,3.1,2.58,4.35,4.3c1.25,1.72,2.22,3.77,2.66,5.94
				c0.48,2.17,0.38,4.39-0.01,6.42c-0.4,2.04-1.11,3.89-1.96,5.61c-0.86,1.73-1.91,3.34-3.09,4.82c-2.38,2.94-5.19,5.32-8.13,7.33
				c-5.94,3.96-12.35,6.58-18.8,8.66c-6.46,2.06-13.01,3.57-19.58,4.78c-6.57,1.22-13.17,2.08-19.77,2.77
				c-6.59,0.67-13.11,1.25-19.68,1.84c-6.56,0.57-13.12,1.15-19.69,1.61c-3.29,0.23-6.58,0.44-9.88,0.63l-4.96,0.25
				c-1.68,0.07-3.27,0.14-5.07,0.14l-2,0l-0.28-1.94l-2.39-16.81l-2.31-16.82c-0.78-5.61-1.54-11.21-2.27-16.83
				c-0.73-5.61-1.5-11.22-2.19-16.84l-0.05-0.39l0.34-0.11L1350,413z M1350,413l-10.85,4.42l0.29-0.49
				c1.15,5.54,2.21,11.11,3.31,16.66c1.1,5.55,2.18,11.11,3.23,16.67l3.19,16.68l3.11,16.69l-2.28-1.94
				c1.48-0.06,3.18-0.18,4.78-0.31l4.88-0.42c3.26-0.3,6.52-0.63,9.78-0.98c6.52-0.7,13.04-1.39,19.56-2.15
				c6.51-0.76,13.07-1.52,19.53-2.34c6.46-0.83,12.87-1.89,19.22-3.14c6.34-1.27,12.6-2.82,18.64-4.85
				c6.02-2.03,11.84-4.58,16.8-8.01c2.45-1.73,4.66-3.69,6.39-5.9c0.85-1.11,1.59-2.28,2.18-3.49c0.6-1.22,1.05-2.48,1.28-3.67
				c0.46-2.4,0.02-4.46-1.35-6.34c-0.69-0.93-1.6-1.81-2.66-2.57c-0.53-0.38-1.09-0.74-1.68-1.06c-0.29-0.16-0.59-0.31-0.88-0.45
				c-0.27-0.13-0.65-0.29-0.77-0.33l-0.85-6.92l-0.14,0.1c-0.02,0.02,0.01-0.01,0.01-0.01l0.09-0.08c0.06-0.05,0.17-0.17,0.25-0.24
				c0.19-0.2,0.38-0.42,0.58-0.65c0.4-0.49,0.8-1,1.19-1.56c0.79-1.11,1.53-2.32,2.25-3.55c0.71-1.25,1.41-2.52,2.06-3.83
				c0.38-0.74,0.55-1.1,0.69-1.53c0.16-0.43,0.2-0.83,0.25-1.23c0.02-0.79-0.12-1.58-0.57-2.46c-0.41-0.88-1.12-1.79-1.95-2.66
				c-0.85-0.87-1.85-1.69-2.92-2.45c-0.54-0.38-1.1-0.74-1.67-1.08c-0.54-0.33-1.21-0.69-1.65-0.9l-4.08-1.95l2.44-3.88
				c0.06-0.1,0.27-0.44,0.4-0.69c0.15-0.28,0.3-0.57,0.45-0.86c0.29-0.59,0.57-1.2,0.83-1.83c0.52-1.25,0.97-2.55,1.35-3.87
				c0.75-2.64,1.22-5.38,1.38-8.14c0.17-2.76,0.05-5.55-0.34-8.31c-0.11-0.69-0.21-1.38-0.35-2.06l-0.21-1.03
				c-0.06-0.31-0.1-0.45-0.17-0.66c-0.26-0.75-0.65-1.29-1.31-1.82c-1.34-1.06-3.88-1.71-6.52-1.9c-2.68-0.21-5.54-0.07-8.42,0.22
				c-5.77,0.59-11.63,1.83-17.49,3.15l-8.85,2.09c-1.49,0.35-2.99,0.71-4.53,1.04c-0.77,0.17-1.55,0.32-2.37,0.47
				c-0.82,0.14-1.64,0.28-2.67,0.36c-0.27,0.02-0.54,0.03-0.87,0.02c-0.34-0.01-0.69-0.02-1.27-0.13c-0.16-0.04-0.32-0.08-0.5-0.13
				c-0.23-0.08-0.37-0.12-0.67-0.27c-0.13-0.07-0.26-0.14-0.39-0.22c-0.17-0.11-0.33-0.23-0.48-0.36c-0.13-0.11-0.33-0.32-0.49-0.5
				c-0.19-0.23-0.28-0.38-0.3-0.43c-0.43-0.7-0.59-1.32-0.69-1.84c-0.16-1.03-0.06-1.7,0.01-2.28c0.09-0.58,0.2-1.06,0.33-1.51
				c0.5-1.78,1.06-3.2,1.6-4.64c1.08-2.85,2.1-5.59,2.91-8.37c1.64-5.53,2.45-11.2,1.89-16.73c-0.53-5.52-2.38-10.98-5.24-15.89
				c-2.85-4.91-6.65-9.39-11.11-12.88c-1.11-0.87-2.27-1.67-3.45-2.35c-1.18-0.69-2.4-1.28-3.54-1.61
				c-0.42-0.13-0.23-0.05-0.12-0.09c0.15-0.02,0.3-0.09,0.3-0.1c0.01-0.05-0.32,0.31-0.57,0.78c-0.53,0.98-0.98,2.34-1.36,3.71
				c-0.76,2.78-1.33,5.75-1.89,8.72l-1.7,8.99c-1.18,6.01-2.53,12.04-4.37,17.96c-1.87,5.9-4.19,11.72-7.41,17.1
				c-0.4,0.67-0.82,1.33-1.24,1.99l-1.21,1.91c-0.81,1.27-1.63,2.54-2.38,3.85c-1.56,2.59-3.04,5.23-4.48,7.88
				c-2.87,5.33-5.47,10.82-7.83,16.41C1353.96,401.49,1351.76,407.17,1350,413z"/>
		</g>
	</g>
</g>
<path class="st14" d="M613.62,765.95C672,793,694.02,830.72,710,878l-51.25,18.61C651,841,631.92,810.29,614,781L613.62,765.95z"/>
<path class="st14" d="M420.7,765.95C350.55,810.07,334.41,876.93,390,974l98-77c-24.11-28.43-30.75-71.96-37-119L420.7,765.95z"/>
<g>
	<g>
		<g>
			<path class="st25" d="M1058.57,547.94c-2.82,4.09-5.84,8.04-9.16,11.79c-1.66,1.87-3.38,3.71-5.31,5.4
				c-0.97,0.84-1.99,1.65-3.15,2.36c-0.59,0.35-1.21,0.69-1.93,0.95c-0.74,0.24-1.52,0.49-2.67,0.28c-0.66-0.14-1.19-0.49-1.57-0.84
				c-0.39-0.36-0.64-0.72-0.87-1.07c-0.43-0.7-0.71-1.38-0.95-2.04c-0.46-1.32-0.75-2.6-0.99-3.88c-0.47-2.55-0.7-5.08-0.88-7.6
				c-0.33-5.05-0.41-10.03-0.3-15.1l1.99,2.81c-4.57-1.2-8.99-2.53-13.45-4.19c-2.23-0.84-4.44-1.75-6.68-2.93
				c-1.13-0.6-2.24-1.28-3.41-2.23c-0.58-0.49-1.19-1.04-1.8-1.9c-0.3-0.42-0.6-0.94-0.84-1.62c-0.23-0.66-0.38-1.51-0.26-2.4
				c0.15-1.09,0.54-1.75,0.85-2.25c0.32-0.49,0.64-0.87,0.93-1.18c0.59-0.63,1.14-1.09,1.68-1.52c1.08-0.85,2.13-1.53,3.18-2.18
				c2.1-1.28,4.19-2.4,6.3-3.46c4.22-2.13,8.44-3.99,12.81-5.77l-2.43,2.98c0.83-4.89,1.85-9.59,3.28-14.39
				c0.73-2.4,1.53-4.79,2.76-7.29c0.66-1.26,1.31-2.55,2.72-4c0.35-0.36,0.81-0.74,1.36-1.1c0.56-0.36,1.29-0.71,2.16-0.89
				c0.44-0.09,0.91-0.13,1.38-0.12c0.23,0.01,0.47,0.04,0.7,0.07c0.23,0.03,0.32,0.06,0.49,0.09c0.6,0.13,1.11,0.32,1.61,0.54
				c1.9,0.9,3.06,2.04,4.08,3.12c1.01,1.1,1.81,2.2,2.56,3.31c1.46,2.22,2.66,4.45,3.72,6.71c2.13,4.54,3.85,9.03,5.39,13.79
				l-5.52-2.16c4.33-2.33,8.61-4.43,13.16-6.32c2.28-0.92,4.6-1.79,7.12-2.48c1.27-0.34,2.57-0.64,4.08-0.78
				c0.76-0.06,1.58-0.09,2.56,0.04c0.5,0.08,1.03,0.18,1.64,0.43c0.61,0.26,1.24,0.57,1.95,1.3c0.66,0.69,1.01,1.48,1.2,2.14
				c0.19,0.67,0.24,1.25,0.24,1.74c0,1.01-0.14,1.8-0.31,2.53c-0.35,1.46-0.83,2.68-1.34,3.88c-1.02,2.36-2.2,4.52-3.42,6.63
				c-2.46,4.21-5.08,8.19-7.92,12.13l0.04-3.01c2.5,4.21,4.78,8.43,6.87,12.85c1.03,2.21,2.03,4.45,2.82,6.82
				c0.4,1.18,0.75,2.4,1.01,3.69c0.13,0.65,0.23,1.31,0.26,2.03c0.03,0.72,0.03,1.47-0.24,2.35c-0.14,0.44-0.31,0.87-0.71,1.36
				c-0.38,0.46-0.87,0.77-1.32,0.95c-0.92,0.36-1.68,0.35-2.39,0.33c-1.41-0.09-2.63-0.42-3.83-0.78c-2.38-0.76-4.58-1.76-6.76-2.81
				C1066.74,552.95,1062.59,550.54,1058.57,547.94z M1058.57,547.94c4.35,1.99,8.75,3.85,13.2,5.46c2.23,0.79,4.48,1.5,6.72,1.97
				c1.11,0.23,2.24,0.41,3.22,0.37c0.47-0.02,0.93-0.11,1.11-0.23c0.09-0.06,0.11-0.1,0.1-0.11c-0.02,0.02,0.04-0.12,0.05-0.25
				c0.11-0.6-0.06-1.7-0.36-2.7c-0.3-1.03-0.71-2.08-1.17-3.12c-0.93-2.08-1.98-4.16-3.13-6.2c-2.28-4.07-4.84-8.08-7.49-11.91
				l-0.98-1.42l1.02-1.6c2.49-3.88,4.92-7.91,7.04-11.97c1.05-2.03,2.04-4.09,2.8-6.11c0.38-1,0.7-2.01,0.85-2.86
				c0.08-0.42,0.11-0.81,0.09-0.98c0.01-0.22-0.14,0.02,0.34,0.6c0.29,0.3,0.39,0.32,0.46,0.36c0.07,0.02,0.01,0.02-0.07,0.01
				c-0.19-0.01-0.56-0.01-0.98,0.05c-0.84,0.11-1.85,0.36-2.85,0.67c-2.03,0.63-4.12,1.49-6.19,2.42
				c-4.14,1.85-8.31,4.03-12.25,6.29l-3.99,2.29l-1.53-4.45c-1.47-4.27-3.22-8.65-5.21-12.69c-1-2.02-2.06-3.99-3.23-5.73
				c-0.58-0.86-1.2-1.68-1.8-2.32c-0.59-0.65-1.24-1.13-1.51-1.24c-0.05-0.02-0.09-0.04-0.08-0.03c0.02,0.01-0.04-0.01,0.05,0.01
				c0.08,0.02,0.17,0.02,0.25,0.02c0.17,0.01,0.34-0.01,0.49-0.04c0.29-0.06,0.47-0.16,0.53-0.2c0.05-0.02,0.04-0.04-0.02,0.03
				c-0.26,0.24-0.8,1.06-1.22,1.9c-0.88,1.76-1.63,3.89-2.29,6.03c-1.3,4.31-2.35,8.91-3.2,13.38l-0.42,2.2l-2.01,0.78
				c-4.15,1.61-8.36,3.37-12.41,5.21c-2.02,0.93-4.01,1.91-5.86,2.95c-0.92,0.52-1.81,1.07-2.55,1.61c-0.37,0.27-0.71,0.54-0.9,0.74
				c-0.11,0.1-0.16,0.17-0.16,0.15c-0.01-0.02,0.12-0.15,0.2-0.67c0.07-0.67-0.21-0.93-0.12-0.8c0.04,0.09,0.26,0.35,0.55,0.6
				c0.58,0.53,1.42,1.08,2.28,1.61c1.75,1.07,3.74,2.03,5.75,2.93c4.04,1.78,8.33,3.36,12.56,4.73l2.18,0.71l-0.19,2.1
				c-0.43,4.82-0.72,9.76-0.74,14.61c-0.01,2.43,0.07,4.85,0.29,7.2c0.11,1.17,0.27,2.33,0.54,3.38c0.13,0.52,0.3,1.01,0.48,1.38
				c0.09,0.17,0.19,0.34,0.25,0.41c0.07,0.08,0.07,0.08,0.01,0.08c0.07,0.06,0.56,0.06,0.99-0.06c0.46-0.12,0.96-0.32,1.45-0.56
				c1-0.49,1.99-1.15,2.96-1.84c1.95-1.4,3.82-2.99,5.63-4.64C1051.75,555.15,1055.22,551.6,1058.57,547.94z"/>
		</g>
	</g>
	<g>
		<g>
			<path class="st25" d="M964.46,497.81c4.96,0.24,9.92,0.71,14.85,1.55c2.47,0.42,4.93,0.91,7.39,1.65
				c1.23,0.38,2.45,0.82,3.67,1.43c0.61,0.31,1.22,0.67,1.83,1.14c0.6,0.5,1.22,1.04,1.65,2.12c0.23,0.63,0.21,1.27,0.11,1.78
				c-0.1,0.52-0.27,0.92-0.45,1.3c-0.37,0.74-0.79,1.33-1.23,1.88c-0.88,1.09-1.81,2.01-2.77,2.89c-1.92,1.75-3.95,3.28-5.99,4.76
				c-4.11,2.95-8.3,5.65-12.66,8.23l1.33-3.18c1.4,4.51,2.6,8.97,3.55,13.63c0.46,2.33,0.86,4.69,1.04,7.22
				c0.09,1.27,0.1,2.58-0.09,4.07c-0.11,0.75-0.26,1.56-0.66,2.53c-0.2,0.48-0.48,1.01-0.93,1.57c-0.44,0.55-1.09,1.12-1.9,1.49
				c-1.01,0.45-1.78,0.46-2.36,0.47c-0.59-0.01-1.08-0.08-1.49-0.17c-0.85-0.17-1.53-0.39-2.18-0.63c-1.29-0.47-2.42-1-3.53-1.55
				c-2.2-1.1-4.25-2.29-6.27-3.52c-4.04-2.45-7.85-5.06-11.67-7.83l3.81,0.49c-4.59,1.88-9.12,3.49-13.95,4.81
				c-2.42,0.64-4.88,1.23-7.65,1.51c-1.42,0.1-2.85,0.24-4.84-0.2c-0.49-0.11-1.06-0.3-1.65-0.57c-0.6-0.29-1.28-0.72-1.89-1.37
				c-0.31-0.32-0.59-0.7-0.83-1.1c-0.11-0.2-0.22-0.41-0.31-0.63c-0.09-0.21-0.12-0.3-0.18-0.46c-0.21-0.57-0.31-1.12-0.39-1.65
				c-0.24-2.09,0.11-3.68,0.49-5.11c0.4-1.44,0.91-2.7,1.46-3.92c1.11-2.42,2.38-4.61,3.73-6.71c2.73-4.2,5.63-8.04,8.86-11.86
				l1.08,5.83c-4.26-2.44-8.31-4.97-12.32-7.83c-1.99-1.45-3.95-2.96-5.86-4.73c-0.95-0.9-1.9-1.85-2.82-3.05
				c-0.46-0.61-0.91-1.29-1.32-2.2c-0.2-0.47-0.39-0.97-0.5-1.62c-0.11-0.66-0.17-1.36,0.07-2.34c0.24-0.92,0.73-1.64,1.19-2.15
				c0.47-0.52,0.93-0.86,1.35-1.13c0.85-0.54,1.6-0.83,2.32-1.07c1.42-0.47,2.72-0.71,4-0.91c2.55-0.38,5-0.52,7.44-0.61
				c4.88-0.13,9.64-0.01,14.48,0.32l-2.58,1.55c2.26-4.34,4.63-8.52,7.28-12.62c1.33-2.04,2.7-4.07,4.3-6
				c0.8-0.96,1.64-1.91,2.6-2.81c0.48-0.45,0.99-0.89,1.58-1.29c0.6-0.4,1.23-0.8,2.12-1.04c0.45-0.11,0.91-0.2,1.52-0.12
				c0.59,0.08,1.11,0.34,1.5,0.62c0.79,0.59,1.18,1.24,1.54,1.86c0.67,1.24,1.03,2.45,1.36,3.66c0.61,2.42,0.93,4.82,1.19,7.22
				C964.39,488.23,964.54,493.03,964.46,497.81z M964.46,497.81c-0.61-4.74-1.35-9.46-2.34-14.09c-0.51-2.31-1.09-4.6-1.88-6.75
				c-0.39-1.06-0.84-2.11-1.38-2.93c-0.27-0.39-0.59-0.73-0.79-0.82c-0.1-0.05-0.14-0.04-0.14-0.03c0.02,0.01-0.12,0.03-0.24,0.08
				c-0.57,0.22-1.41,0.95-2.1,1.74c-0.71,0.8-1.39,1.71-2.03,2.64c-1.28,1.89-2.48,3.88-3.61,5.93c-2.25,4.09-4.3,8.38-6.15,12.65
				l-0.69,1.58l-1.9-0.03c-4.61-0.07-9.32,0-13.89,0.35c-2.28,0.18-4.55,0.43-6.67,0.85c-1.05,0.21-2.07,0.47-2.88,0.79
				c-0.4,0.15-0.74,0.34-0.88,0.45c-0.19,0.11,0.09,0.11,0.33-0.61c0.1-0.41,0.06-0.5,0.06-0.58c-0.02-0.07,0.01-0.02,0.05,0.06
				c0.09,0.17,0.29,0.48,0.56,0.8c0.54,0.66,1.29,1.38,2.08,2.07c1.61,1.39,3.45,2.71,5.33,3.97c3.76,2.53,7.81,4.92,11.81,7.08
				l4.05,2.18l-2.97,3.65c-2.85,3.5-5.64,7.3-8.02,11.12c-1.18,1.92-2.3,3.86-3.16,5.77c-0.42,0.95-0.79,1.9-1.02,2.76
				c-0.24,0.85-0.31,1.65-0.26,1.93c0.02,0.06,0.02,0.1,0.02,0.08c-0.01-0.02,0.01,0.04-0.02-0.04c-0.03-0.08-0.07-0.16-0.12-0.23
				c-0.08-0.15-0.19-0.29-0.29-0.4c-0.2-0.22-0.39-0.31-0.45-0.34c-0.05-0.03-0.06-0.02,0.04,0c0.34,0.09,1.32,0.12,2.26,0.03
				c1.96-0.18,4.16-0.67,6.33-1.24c4.34-1.17,8.81-2.71,13.05-4.35l2.09-0.81l1.72,1.3c3.56,2.67,7.28,5.32,10.98,7.78
				c1.86,1.22,3.74,2.4,5.61,3.42c0.93,0.51,1.86,0.97,2.72,1.32c0.42,0.17,0.83,0.31,1.1,0.38c0.14,0.04,0.23,0.04,0.21,0.05
				c-0.01,0.02-0.19-0.02-0.68,0.19c-0.61,0.3-0.68,0.67-0.62,0.52c0.05-0.09,0.16-0.4,0.22-0.78c0.14-0.77,0.17-1.77,0.16-2.79
				c-0.02-2.05-0.25-4.25-0.56-6.43c-0.62-4.37-1.55-8.85-2.62-13.17l-0.55-2.23l1.88-0.95c4.32-2.18,8.66-4.55,12.79-7.09
				c2.07-1.28,4.08-2.62,5.96-4.05c0.93-0.71,1.84-1.46,2.59-2.24c0.37-0.39,0.7-0.79,0.92-1.14c0.1-0.17,0.19-0.34,0.22-0.43
				c0.03-0.1,0.03-0.1,0.06-0.05c0.01-0.09-0.24-0.51-0.58-0.8c-0.34-0.33-0.78-0.64-1.25-0.94c-0.95-0.59-2.03-1.09-3.13-1.54
				c-2.21-0.92-4.55-1.66-6.92-2.33C974.18,499.8,969.34,498.73,964.46,497.81z"/>
		</g>
	</g>
	<g>
		<g>
			<path class="st25" d="M855.85,444.03c3.33-3.68,6.85-7.21,10.63-10.49c1.89-1.64,3.84-3.23,5.97-4.66
				c1.08-0.7,2.19-1.37,3.44-1.93c0.63-0.27,1.29-0.52,2.04-0.69c0.76-0.14,1.57-0.28,2.68,0.07c0.63,0.23,1.12,0.65,1.44,1.04
				c0.34,0.41,0.54,0.79,0.72,1.17c0.34,0.75,0.53,1.46,0.68,2.14c0.29,1.37,0.4,2.68,0.48,3.98c0.13,2.59,0.02,5.13-0.12,7.65
				c-0.33,5.05-0.91,10-1.68,15.01l-1.61-3.05c4.37,1.78,8.58,3.69,12.78,5.91c2.1,1.13,4.17,2.31,6.24,3.78
				c1.04,0.74,2.05,1.56,3.09,2.66c0.51,0.56,1.04,1.19,1.54,2.12c0.24,0.46,0.48,1.01,0.62,1.71c0.14,0.69,0.17,1.55-0.06,2.41
				c-0.29,1.06-0.77,1.67-1.14,2.12c-0.38,0.44-0.75,0.78-1.07,1.05c-0.67,0.55-1.27,0.93-1.87,1.29c-1.18,0.7-2.31,1.24-3.44,1.74
				c-2.25,1-4.47,1.83-6.7,2.61c-4.46,1.56-8.89,2.85-13.46,4.04l2.8-2.64c-1.47,4.74-3.09,9.26-5.14,13.83
				c-1.04,2.28-2.15,4.55-3.69,6.87c-0.82,1.16-1.63,2.35-3.22,3.61c-0.39,0.31-0.9,0.63-1.49,0.91c-0.6,0.28-1.37,0.53-2.26,0.6
				c-0.44,0.04-0.92,0.01-1.38-0.06c-0.23-0.04-0.46-0.1-0.68-0.16c-0.23-0.06-0.31-0.1-0.47-0.16c-0.57-0.21-1.06-0.47-1.52-0.74
				c-1.77-1.14-2.77-2.42-3.64-3.63c-0.85-1.22-1.51-2.42-2.1-3.62c-1.16-2.39-2.05-4.76-2.81-7.14c-1.52-4.78-2.63-9.46-3.53-14.37
				l5.19,2.86c-4.6,1.74-9.12,3.26-13.87,4.54c-2.38,0.62-4.8,1.17-7.38,1.52c-1.3,0.17-2.63,0.3-4.15,0.24
				c-0.76-0.04-1.58-0.12-2.54-0.38c-0.49-0.14-1-0.31-1.57-0.64c-0.58-0.34-1.15-0.73-1.76-1.54c-0.56-0.77-0.81-1.6-0.9-2.28
				c-0.1-0.69-0.07-1.27-0.01-1.76c0.13-1,0.38-1.77,0.64-2.47c0.54-1.4,1.17-2.55,1.83-3.67c1.33-2.21,2.77-4.19,4.25-6.13
				c2.99-3.86,6.11-7.45,9.44-10.98l-0.44,2.98c-1.92-4.5-3.64-8.99-5.13-13.64c-0.73-2.33-1.43-4.67-1.9-7.13
				c-0.24-1.23-0.43-2.48-0.52-3.79c-0.04-0.66-0.05-1.33,0-2.04c0.07-0.71,0.17-1.46,0.54-2.3c0.2-0.42,0.42-0.83,0.88-1.25
				c0.44-0.4,0.97-0.64,1.43-0.77c0.95-0.24,1.71-0.13,2.41-0.01c1.38,0.27,2.55,0.76,3.69,1.28c2.25,1.07,4.31,2.35,6.33,3.67
				C848.41,438,852.2,440.94,855.85,444.03z M855.85,444.03c-4.05-2.54-8.17-4.96-12.37-7.14c-2.1-1.07-4.25-2.08-6.4-2.84
				c-1.07-0.38-2.16-0.69-3.14-0.79c-0.47-0.04-0.94-0.01-1.14,0.08c-0.1,0.04-0.12,0.08-0.11,0.09c0.02-0.02-0.06,0.11-0.09,0.24
				c-0.19,0.58-0.16,1.69,0.01,2.73c0.17,1.06,0.44,2.16,0.75,3.25c0.65,2.19,1.42,4.38,2.29,6.55c1.73,4.33,3.74,8.65,5.86,12.78
				l0.79,1.53l-1.22,1.45c-2.98,3.52-5.91,7.2-8.55,10.95c-1.31,1.88-2.56,3.79-3.58,5.69c-0.5,0.94-0.95,1.9-1.22,2.73
				c-0.14,0.41-0.21,0.79-0.21,0.96c-0.04,0.22,0.14,0-0.26-0.64c-0.25-0.33-0.35-0.37-0.41-0.42c-0.06-0.03-0.01-0.02,0.07,0
				c0.19,0.04,0.56,0.08,0.97,0.08c0.85,0,1.88-0.12,2.92-0.29c2.09-0.36,4.28-0.94,6.45-1.59c4.35-1.3,8.76-2.91,12.97-4.63
				l4.25-1.75l0.94,4.61c0.9,4.42,2.06,9,3.5,13.26c0.73,2.13,1.52,4.23,2.45,6.1c0.47,0.93,0.96,1.82,1.48,2.54
				c0.5,0.72,1.08,1.28,1.33,1.42c0.05,0.02,0.09,0.05,0.08,0.04c-0.02-0.01,0.03,0.02-0.05-0.01c-0.08-0.03-0.16-0.05-0.25-0.05
				c-0.17-0.04-0.34-0.03-0.49-0.03c-0.3,0.02-0.49,0.1-0.55,0.13c-0.06,0.02-0.05,0.04,0.02-0.03c0.29-0.2,0.93-0.94,1.46-1.73
				c1.1-1.63,2.13-3.64,3.06-5.68c1.85-4.1,3.5-8.53,4.92-12.84l0.7-2.13l2.1-0.51c4.32-1.05,8.73-2.25,12.98-3.54
				c2.12-0.66,4.23-1.37,6.2-2.16c0.98-0.4,1.94-0.82,2.74-1.26c0.4-0.22,0.77-0.45,0.99-0.61c0.12-0.09,0.18-0.15,0.17-0.13
				c0.01,0.02-0.14,0.13-0.28,0.64c-0.16,0.66,0.09,0.95,0.01,0.81c-0.03-0.1-0.21-0.38-0.47-0.67c-0.51-0.6-1.26-1.25-2.05-1.9
				c-1.6-1.29-3.44-2.5-5.32-3.66c-3.77-2.3-7.82-4.42-11.84-6.34l-2.07-0.99l0.46-2.06c1.06-4.72,1.99-9.58,2.64-14.39
				c0.33-2.41,0.56-4.82,0.65-7.18c0.04-1.17,0.04-2.35-0.09-3.42c-0.06-0.53-0.16-1.04-0.3-1.43c-0.07-0.18-0.14-0.36-0.19-0.44
				c-0.05-0.09-0.06-0.09,0-0.08c-0.07-0.07-0.54-0.14-0.99-0.07c-0.47,0.06-0.99,0.19-1.51,0.37c-1.05,0.36-2.13,0.88-3.18,1.44
				c-2.11,1.13-4.18,2.46-6.19,3.87C863.56,437.79,859.66,440.85,855.85,444.03z"/>
		</g>
	</g>
	<g>
		<g>
			<path class="st25" d="M777.98,418.06c-3.49,3.53-7.16,6.9-11.07,10.01c-1.96,1.55-3.98,3.06-6.17,4.39
				c-1.11,0.65-2.25,1.28-3.52,1.78c-0.64,0.25-1.31,0.46-2.07,0.6c-0.77,0.11-1.58,0.21-2.67-0.19c-0.62-0.25-1.09-0.69-1.4-1.1
				c-0.32-0.42-0.5-0.82-0.67-1.2c-0.3-0.77-0.46-1.48-0.58-2.17c-0.23-1.38-0.28-2.69-0.3-4c-0.02-2.6,0.2-5.13,0.46-7.64
				c0.55-5.03,1.35-9.95,2.33-14.92l1.47,3.12c-4.29-1.97-8.41-4.06-12.51-6.47c-2.04-1.22-4.07-2.49-6.07-4.05
				c-1-0.78-1.98-1.65-2.97-2.79c-0.49-0.58-0.99-1.23-1.44-2.18c-0.22-0.47-0.43-1.03-0.54-1.74c-0.11-0.69-0.11-1.56,0.16-2.41
				c0.34-1.05,0.84-1.63,1.23-2.06c0.4-0.43,0.78-0.75,1.12-1c0.7-0.52,1.31-0.87,1.92-1.2c1.21-0.64,2.36-1.13,3.51-1.59
				c2.29-0.9,4.55-1.63,6.81-2.31c4.53-1.36,9.01-2.46,13.62-3.44l-2.91,2.51c1.67-4.67,3.49-9.12,5.74-13.6
				c1.14-2.23,2.34-4.45,3.99-6.7c0.87-1.13,1.73-2.28,3.38-3.47c0.41-0.29,0.93-0.59,1.53-0.84c0.61-0.25,1.39-0.47,2.28-0.5
				c0.45-0.02,0.91,0.03,1.38,0.12c0.23,0.05,0.45,0.12,0.67,0.19c0.22,0.07,0.3,0.12,0.46,0.18c0.56,0.23,1.04,0.51,1.49,0.81
				c1.71,1.21,2.66,2.54,3.48,3.78c0.8,1.26,1.4,2.48,1.94,3.71c1.06,2.44,1.84,4.85,2.5,7.26c1.3,4.84,2.22,9.56,2.9,14.51
				l-5.06-3.09c4.67-1.54,9.25-2.86,14.06-3.93c2.41-0.51,4.84-0.96,7.44-1.2c1.31-0.11,2.64-0.18,4.15-0.05
				c0.76,0.07,1.57,0.18,2.52,0.49c0.48,0.16,0.98,0.36,1.54,0.71c0.56,0.36,1.12,0.78,1.69,1.62c0.53,0.79,0.73,1.64,0.8,2.32
				c0.07,0.69,0.02,1.27-0.07,1.76c-0.17,1-0.46,1.75-0.75,2.44c-0.6,1.37-1.29,2.5-1.99,3.58c-1.42,2.15-2.95,4.07-4.52,5.94
				c-3.16,3.72-6.43,7.18-9.92,10.56l0.57-2.96c1.72,4.58,3.24,9.14,4.53,13.85c0.63,2.36,1.22,4.73,1.59,7.2
				c0.19,1.24,0.33,2.49,0.35,3.81c0.01,0.66-0.01,1.33-0.09,2.04c-0.1,0.71-0.23,1.45-0.64,2.27c-0.22,0.41-0.46,0.81-0.93,1.21
				c-0.46,0.39-0.99,0.6-1.47,0.7c-0.96,0.19-1.71,0.05-2.41-0.09c-1.37-0.33-2.52-0.87-3.63-1.44c-2.21-1.17-4.21-2.53-6.17-3.94
				C785.16,424.41,781.49,421.31,777.98,418.06z M777.98,418.06c3.93,2.72,7.94,5.32,12.05,7.68c2.05,1.16,4.15,2.26,6.27,3.11
				c1.05,0.42,2.13,0.79,3.1,0.93c0.47,0.06,0.94,0.06,1.14-0.03c0.1-0.04,0.13-0.08,0.12-0.09c-0.02,0.01,0.06-0.11,0.1-0.23
				c0.22-0.57,0.23-1.68,0.11-2.72c-0.12-1.07-0.34-2.17-0.61-3.28c-0.55-2.21-1.23-4.44-2-6.65c-1.54-4.4-3.36-8.8-5.3-13.03
				l-0.72-1.57l1.29-1.39c3.13-3.38,6.23-6.93,9.02-10.56c1.39-1.82,2.72-3.67,3.83-5.53c0.54-0.92,1.04-1.86,1.34-2.67
				c0.15-0.4,0.25-0.78,0.26-0.95c0.04-0.22-0.14-0.01,0.23,0.65c0.24,0.34,0.33,0.38,0.39,0.43c0.06,0.04,0.01,0.02-0.07,0
				c-0.19-0.05-0.55-0.11-0.97-0.12c-0.85-0.04-1.88,0.04-2.93,0.17c-2.11,0.27-4.32,0.75-6.52,1.31c-4.4,1.1-8.88,2.52-13.16,4.06
				l-4.33,1.56l-0.73-4.64c-0.7-4.46-1.66-9.08-2.91-13.4c-0.64-2.16-1.33-4.29-2.18-6.21c-0.42-0.95-0.88-1.86-1.37-2.6
				c-0.47-0.74-1.02-1.33-1.27-1.48c-0.05-0.03-0.09-0.05-0.08-0.04c0.02,0.01-0.03-0.02,0.05,0.02c0.08,0.03,0.16,0.05,0.25,0.07
				c0.17,0.04,0.34,0.05,0.49,0.05c0.3,0,0.49-0.08,0.56-0.1c0.06-0.01,0.05-0.03-0.02,0.03c-0.3,0.19-0.98,0.9-1.53,1.66
				c-1.18,1.58-2.29,3.54-3.31,5.54c-2.03,4.01-3.87,8.37-5.48,12.62l-0.8,2.1l-2.12,0.42c-4.37,0.86-8.82,1.86-13.12,2.97
				c-2.15,0.57-4.29,1.18-6.29,1.89c-1,0.35-1.97,0.74-2.8,1.14c-0.41,0.2-0.79,0.41-1.02,0.57c-0.13,0.08-0.18,0.14-0.18,0.12
				c0-0.02,0.14-0.13,0.31-0.63c0.19-0.65-0.04-0.95,0.02-0.81c0.03,0.1,0.19,0.39,0.44,0.69c0.48,0.62,1.21,1.31,1.97,1.98
				c1.54,1.36,3.33,2.65,5.16,3.89c3.67,2.46,7.62,4.76,11.55,6.85l2.02,1.08l-0.55,2.04c-1.26,4.67-2.41,9.48-3.27,14.26
				c-0.43,2.39-0.78,4.79-0.97,7.14c-0.09,1.17-0.14,2.34-0.06,3.42c0.04,0.53,0.12,1.05,0.23,1.45c0.06,0.19,0.12,0.37,0.17,0.45
				c0.05,0.09,0.05,0.09,0,0.08c0.06,0.07,0.54,0.16,0.98,0.11c0.47-0.04,1-0.15,1.53-0.3c1.07-0.31,2.16-0.78,3.24-1.3
				c2.16-1.03,4.28-2.28,6.35-3.59C770.01,423.96,774.04,421.07,777.98,418.06z"/>
		</g>
	</g>
	<g>
		<g>
			<path class="st25" d="M701.37,331.4c-4.88,0.94-9.8,1.66-14.79,2.02c-2.5,0.17-5.01,0.28-7.57,0.14
				c-1.28-0.08-2.57-0.21-3.91-0.52c-0.67-0.16-1.34-0.36-2.04-0.68c-0.7-0.34-1.43-0.72-2.1-1.66c-0.37-0.56-0.51-1.19-0.53-1.7
				c-0.03-0.53,0.05-0.96,0.13-1.37c0.18-0.8,0.45-1.48,0.75-2.12c0.59-1.27,1.29-2.38,2.01-3.47c1.45-2.16,3.06-4.12,4.69-6.05
				c3.3-3.84,6.73-7.45,10.35-11l-0.54,3.4c-2.43-4.05-4.65-8.1-6.68-12.4c-1-2.16-1.95-4.35-2.72-6.77
				c-0.39-1.21-0.71-2.48-0.88-3.98c-0.08-0.76-0.12-1.58,0.04-2.61c0.08-0.51,0.22-1.09,0.53-1.74c0.3-0.64,0.79-1.34,1.49-1.9
				c0.87-0.68,1.62-0.87,2.18-1.01c0.57-0.13,1.07-0.18,1.49-0.19c0.87-0.04,1.58,0.02,2.27,0.09c1.37,0.15,2.59,0.4,3.8,0.67
				c2.4,0.55,4.67,1.22,6.92,1.93c4.51,1.43,8.82,3.05,13.19,4.84l-3.82,0.43c4.02-2.91,8.03-5.56,12.41-7.98
				c2.2-1.2,4.45-2.35,7.07-3.28c1.35-0.44,2.71-0.9,4.75-0.95c0.5-0.01,1.1,0.04,1.74,0.17c0.65,0.14,1.42,0.4,2.16,0.88
				c0.38,0.24,0.74,0.54,1.07,0.88c0.16,0.17,0.31,0.35,0.45,0.54c0.14,0.19,0.19,0.27,0.28,0.41c0.34,0.51,0.57,1.01,0.77,1.51
				c0.73,1.97,0.76,3.6,0.74,5.08c-0.05,1.49-0.25,2.84-0.49,4.15c-0.51,2.61-1.22,5.04-2.03,7.4c-1.65,4.73-3.57,9.15-5.8,13.62
				l-2.43-5.4c4.72,1.36,9.25,2.86,13.82,4.69c2.28,0.94,4.54,1.94,6.82,3.21c1.14,0.65,2.28,1.34,3.46,2.3
				c0.59,0.49,1.2,1.04,1.8,1.82c0.3,0.41,0.61,0.85,0.88,1.46c0.26,0.61,0.49,1.28,0.48,2.29c-0.01,0.95-0.32,1.77-0.64,2.37
				c-0.33,0.61-0.7,1.06-1.05,1.42c-0.7,0.72-1.36,1.18-2,1.59c-1.27,0.8-2.47,1.34-3.67,1.83c-2.39,0.97-4.73,1.69-7.08,2.35
				c-4.71,1.29-9.36,2.3-14.15,3.12l2.14-2.12c-1.17,4.76-2.48,9.37-4.08,13.99c-0.81,2.3-1.66,4.6-2.75,6.84
				c-0.54,1.13-1.14,2.24-1.86,3.34c-0.36,0.55-0.76,1.1-1.23,1.63c-0.48,0.53-1.01,1.07-1.81,1.51c-0.41,0.22-0.83,0.41-1.45,0.47
				c-0.59,0.06-1.16-0.06-1.61-0.25c-0.91-0.38-1.44-0.93-1.94-1.44c-0.94-1.05-1.59-2.14-2.19-3.24c-1.16-2.21-2.04-4.47-2.86-6.74
				C703.7,340.69,702.43,336.07,701.37,331.4z M701.37,331.4c1.71,4.46,3.56,8.87,5.61,13.14c1.04,2.12,2.15,4.21,3.42,6.11
				c0.63,0.94,1.31,1.85,2.04,2.52c0.35,0.32,0.74,0.57,0.96,0.61c0.11,0.02,0.15,0.01,0.15-0.01c-0.03,0,0.11-0.06,0.21-0.14
				c0.5-0.35,1.14-1.26,1.63-2.19c0.5-0.95,0.95-1.99,1.35-3.05c0.8-2.14,1.49-4.36,2.1-6.61c1.21-4.5,2.19-9.16,2.98-13.74
				l0.29-1.7l1.85-0.42c4.49-1.03,9.05-2.21,13.41-3.63c2.17-0.72,4.32-1.5,6.28-2.4c0.97-0.45,1.9-0.95,2.61-1.45
				c0.35-0.24,0.64-0.5,0.75-0.64c0.16-0.15-0.11-0.09-0.17,0.67c0,0.42,0.06,0.5,0.08,0.58c0.03,0.06,0,0.02-0.06-0.05
				c-0.13-0.14-0.4-0.4-0.73-0.65c-0.68-0.51-1.58-1.03-2.51-1.51c-1.89-0.97-3.99-1.82-6.12-2.6c-4.25-1.57-8.76-2.93-13.15-4.07
				l-4.45-1.16l2.02-4.25c1.94-4.08,3.75-8.43,5.16-12.71c0.69-2.14,1.32-4.29,1.7-6.35c0.19-1.02,0.32-2.03,0.34-2.92
				c0.03-0.88-0.09-1.67-0.21-1.94c-0.03-0.05-0.04-0.09-0.04-0.08c0.01,0.02-0.02-0.03,0.03,0.04c0.05,0.07,0.1,0.14,0.17,0.19
				c0.11,0.13,0.25,0.23,0.38,0.32c0.25,0.16,0.45,0.21,0.52,0.23c0.06,0.02,0.06,0-0.03,0.01c-0.35-0.01-1.31,0.19-2.2,0.51
				c-1.86,0.64-3.89,1.64-5.86,2.7c-3.94,2.17-7.92,4.72-11.65,7.32l-1.84,1.28l-1.98-0.85c-4.09-1.75-8.33-3.44-12.51-4.96
				c-2.09-0.75-4.2-1.45-6.26-1.99c-1.02-0.27-2.04-0.5-2.95-0.64c-0.45-0.07-0.88-0.11-1.16-0.1c-0.15-0.01-0.23,0.01-0.22,0
				c0.01-0.02,0.19-0.03,0.61-0.34c0.52-0.43,0.5-0.81,0.47-0.66c-0.03,0.1-0.06,0.43-0.03,0.81c0.05,0.78,0.26,1.76,0.5,2.75
				c0.51,1.99,1.25,4.07,2.06,6.12c1.64,4.1,3.6,8.23,5.66,12.17l1.06,2.03l-1.61,1.37c-3.68,3.14-7.34,6.47-10.75,9.92
				c-1.7,1.73-3.34,3.52-4.83,5.35c-0.74,0.91-1.44,1.86-1.98,2.79c-0.27,0.46-0.49,0.93-0.62,1.32c-0.06,0.19-0.11,0.37-0.11,0.47
				c-0.01,0.1-0.01,0.1-0.04,0.07c0.01,0.09,0.35,0.43,0.75,0.65c0.41,0.24,0.91,0.44,1.43,0.61c1.06,0.35,2.23,0.58,3.41,0.75
				c2.37,0.36,4.82,0.54,7.27,0.62C691.45,331.77,696.41,331.67,701.37,331.4z"/>
		</g>
	</g>
</g>
</svg>
